<?xml version="1.0" encoding="utf-8"?>
<!-- Generator: Adobe Illustrator 21.1.0, SVG Export Plug-In . SVG Version: 6.00 Build 0)  -->
<svg version="1.1" xmlns="http://www.w3.org/2000/svg" xmlns:xlink="http://www.w3.org/1999/xlink" x="0px" y="0px"
	 viewBox="0 0 800 600" style="enable-background:new 0 0 800 600;" xml:space="preserve">
<style type="text/css">
	.st0{fill:none;stroke:#231F20;stroke-width:3;stroke-miterlimit:10;}
	.st1{fill:#FFFFFF;stroke:#231F20;stroke-width:3;stroke-miterlimit:10;}
</style>
<g id="Layer_1">
	<path class="st0" d="M123.4,147.4c-10.3,6.7-20.6,13.4-30.9,20.1c-4.7-8.1-9.4-16.3-14.1-24.4c-10.1,7-20.2,14.1-30.4,21.1
		c2.9-12.6,5.8-25.3,8.7-37.9c-8.1-5.4-16.3-10.8-24.4-16.3c6.3-6.7,12.6-13.4,19-20.1c-7.6-7.6-15.2-15.2-22.8-22.8
		c9.8-2.9,19.5-5.8,29.3-8.7C54.5,48,51.3,37.5,48,27c10.3,5.8,20.6,11.6,30.9,17.3c5.8-5.6,11.6-11.2,17.3-16.8
		c7,5.8,14.1,11.6,21.1,17.3c8.5-5.4,17-10.8,25.5-16.3l16.8,11.9l25.5-9.2l2.7,17.9h29.3l-19,24.9c7.2,8.1,14.5,16.3,21.7,24.4
		c-9.6,1.6-19.2,3.3-28.7,4.9c6.3,10.5,12.6,21,19,31.4c-10.3-1.8-20.6-3.6-30.9-5.4l5.4,30.4L157,144.6L139.1,175L123.4,147.4z"/>
</g>
<g id="Layer_2">
	<path class="st1" d="M651.4,177.9c-12,7.8-24,15.6-36,23.4c-5.5-9.5-11-19-16.4-28.4c-11.8,8.2-23.6,16.4-35.4,24.7
		c3.4-14.7,6.7-29.5,10.1-44.2c-9.5-6.3-19-12.6-28.4-19c7.4-7.8,14.7-15.6,22.1-23.4c-8.8-8.8-17.7-17.7-26.5-26.5
		c11.4-3.4,22.8-6.7,34.1-10.1c-3.8-12.2-7.6-24.4-11.4-36.7c12,6.7,24,13.5,36,20.2c6.7-6.5,13.5-13.1,20.2-19.6
		c8.2,6.7,16.4,13.5,24.7,20.2c9.9-6.3,19.8-12.6,29.7-19l19.6,13.9l29.7-10.7l3.2,20.9h34.1l-22.1,29.1c8.4,9.5,16.9,19,25.3,28.4
		c-11.2,1.9-22.3,3.8-33.5,5.7c7.4,12.2,14.7,24.4,22.1,36.7c-12-2.1-24-4.2-36-6.3l6.3,35.4l-32.2-17.7l-20.9,35.4L651.4,177.9z"/>
</g>
<g id="Layer_7">
	<path class="st1" d="M358.3,259.7c-6,3.9-12,7.8-18,11.7c-2.7-4.7-5.5-9.5-8.2-14.2c-5.9,4.1-11.8,8.2-17.7,12.3
		c1.7-7.4,3.4-14.7,5.1-22.1c-4.7-3.2-9.5-6.3-14.2-9.5c3.7-3.9,7.4-7.8,11.1-11.7c-4.4-4.4-8.8-8.8-13.3-13.3
		c5.7-1.7,11.4-3.4,17.1-5.1c-1.9-6.1-3.8-12.2-5.7-18.3c6,3.4,12,6.7,18,10.1c3.4-3.3,6.7-6.5,10.1-9.8c4.1,3.4,8.2,6.7,12.3,10.1
		c5-3.2,9.9-6.3,14.9-9.5l9.8,7l14.9-5.4l1.6,10.4H413L401.9,217c4.2,4.7,8.4,9.5,12.6,14.2c-5.6,0.9-11.2,1.9-16.7,2.8
		c3.7,6.1,7.4,12.2,11.1,18.3c-6-1.1-12-2.1-18-3.2L394,267l-16.1-8.8l-10.4,17.7L358.3,259.7z"/>
</g>
<g id="Layer_6">
	<path class="st1" d="M243.6,524.7c-6.3,4.1-12.7,8.2-19,12.3c-2.9-5-5.8-10-8.7-15c-6.2,4.3-12.5,8.7-18.7,13
		c1.8-7.8,3.6-15.6,5.3-23.4c-5-3.3-10-6.7-15-10c3.9-4.1,7.8-8.2,11.7-12.3c-4.7-4.7-9.3-9.3-14-14c6-1.8,12-3.6,18-5.3
		c-2-6.5-4-12.9-6-19.4c6.3,3.6,12.7,7.1,19,10.7c3.6-3.4,7.1-6.9,10.7-10.3c4.3,3.6,8.7,7.1,13,10.7c5.2-3.3,10.5-6.7,15.7-10
		L266,459l15.7-5.7l1.7,11h18l-11.7,15.3c4.4,5,8.9,10,13.3,15c-5.9,1-11.8,2-17.7,3c3.9,6.5,7.8,12.9,11.7,19.4
		c-6.3-1.1-12.7-2.2-19-3.3l3.3,18.7l-17-9.3l-11,18.7L243.6,524.7z"/>
</g>
<g id="Layer_3">
	<path class="st1" d="M96.9,476.2c-7.4,4.8-14.9,9.6-22.3,14.5c-3.4-5.9-6.8-11.7-10.2-17.6c-7.3,5.1-14.6,10.2-21.9,15.2
		c2.1-9.1,4.2-18.2,6.3-27.4c-5.9-3.9-11.7-7.8-17.6-11.7c4.6-4.8,9.1-9.6,13.7-14.5c-5.5-5.5-10.9-10.9-16.4-16.4
		c7-2.1,14.1-4.2,21.1-6.3c-2.3-7.6-4.7-15.1-7-22.7c7.4,4.2,14.9,8.3,22.3,12.5c4.2-4,8.3-8.1,12.5-12.1
		c5.1,4.2,10.2,8.3,15.2,12.5c6.1-3.9,12.2-7.8,18.4-11.7l12.1,8.6l18.4-6.6l2,12.9h21.1l-13.7,18c5.2,5.9,10.4,11.7,15.6,17.6
		c-6.9,1.2-13.8,2.3-20.7,3.5c4.6,7.6,9.1,15.1,13.7,22.7c-7.4-1.3-14.9-2.6-22.3-3.9l3.9,21.9l-19.9-10.9l-12.9,21.9L96.9,476.2z"
		/>
</g>
<g id="Layer_4">
	<path class="st1" d="M665.9,547.3c-8.4,4.7-16.9,9.4-25.3,14.1c-3.8-5.7-7.7-11.4-11.5-17.1c-8.3,4.9-16.6,9.9-24.8,14.8
		c2.4-8.9,4.7-17.7,7.1-26.6c-6.7-3.8-13.3-7.6-20-11.4c5.2-4.7,10.3-9.4,15.5-14.1c-6.2-5.3-12.4-10.6-18.6-16c8-2,16-4.1,24-6.1
		c-2.7-7.3-5.3-14.7-8-22c8.4,4.1,16.9,8.1,25.3,12.2c4.7-3.9,9.5-7.8,14.2-11.8c5.8,4.1,11.5,8.1,17.3,12.2
		c6.9-3.8,13.9-7.6,20.8-11.4l13.7,8.4l20.8-6.5l2.2,12.5h24L727.1,496c5.9,5.7,11.8,11.4,17.7,17.1c-7.8,1.1-15.7,2.3-23.5,3.4
		c5.2,7.3,10.3,14.7,15.5,22c-8.4-1.3-16.9-2.5-25.3-3.8L716,556l-22.6-10.6l-14.6,21.3L665.9,547.3z"/>
</g>
<g id="Layer_5">
	<path class="st0" d="M243.6,388.6c-6.6,3.7-13.1,7.3-19.7,11c-3-4.4-6-8.9-9-13.3c-6.5,3.9-12.9,7.7-19.4,11.6
		c1.8-6.9,3.7-13.8,5.5-20.7c-5.2-3-10.4-5.9-15.6-8.9c4-3.7,8.1-7.3,12.1-11c-4.8-4.1-9.7-8.3-14.5-12.4c6.2-1.6,12.5-3.2,18.7-4.7
		c-2.1-5.7-4.2-11.5-6.2-17.2c6.6,3.2,13.1,6.3,19.7,9.5c3.7-3.1,7.4-6.1,11.1-9.2c4.5,3.2,9,6.3,13.5,9.5c5.4-3,10.8-5.9,16.3-8.9
		l10.7,6.5l16.3-5l1.7,9.8h18.7l-12.1,13.6c4.6,4.4,9.2,8.9,13.8,13.3c-6.1,0.9-12.2,1.8-18.3,2.7c4,5.7,8.1,11.5,12.1,17.2
		c-6.6-1-13.1-2-19.7-3l3.5,16.6l-17.6-8.3l-11.4,16.6L243.6,388.6z"/>
</g>
</svg>
