
<svg version="1.1" xmlns="http://www.w3.org/2000/svg" xmlns:xlink="http://www.w3.org/1999/xlink" x="0px" y="0px"
	 viewBox="0 0 700 1200" style="enable-background:new 0 0 700 1200;" xml:space="preserve">
	 	<defs>
			<style type="text/css">
				#row1{
					fill:none;
					stroke:#FCA364;
					animation: dash 5s ease-in-out alternate infinite;
					stroke-dasharray: 250;
					stroke-dashoffset: 1000;
					animation-iteration-count: infinite;
					}

				@keyframes dash {
						to {
						    stroke-dashoffset: 0;
						    stroke-width: 10;
						  }
				}

				#row2{
					fill:none;
					stroke:#FFD7A0;
					animation: row2 2s ease-in-out alternate infinite;
					stroke-dasharray: 100;
					stroke-dashoffset: 1000;
					animation-iteration-count: infinite;
					}

				@keyframes row2 {
				 		from {
						    stroke-dashoffset: 1000;
						  }
						to {
						    stroke-dashoffset: 0;
						    stroke-width: 10;
						  }
				}

				#row3{
					fill:none;
					stroke:#FFF0F6;
					animation: dash 5s ease-in-out alternate infinite;
					stroke-dasharray: 10;
					stroke-dashoffset: 1000;
					animation-iteration-count: infinite;
					}

				@keyframes dash {
						to {
						    stroke-dashoffset: 0;
						    stroke-width: 10;
						  }
				}

				#row4{
					fill:none;
					stroke:#FFD7A0;
					animation: row2 2s ease-in-out alternate infinite;
					stroke-dasharray: 100;
					stroke-dashoffset: 1000;
					animation-iteration-count: infinite;
					}

				@keyframes row2 {
				 		from {
						    stroke-dashoffset: 1000;
						  }
						to {
						    stroke-dashoffset: 0;
						    stroke-width: 10;
						  }
				}


				#row5{
					fill:none;
					stroke:#FCA364;
					animation: dash 5s ease-in-out alternate infinite;
					stroke-dasharray: 250;
					stroke-dashoffset: 1000;
					animation-iteration-count: infinite;
					}

				@keyframes dash {
						to {
						    stroke-dashoffset: 0;
						    stroke-width: 10;
						  }
				}
			</style>
		</defs>
		<g id="row1">
			<g>
				<path class="st0" d="M72.8,1071.6c15.5,29.4,44.8,48.3,76,48c43.8-0.4,70.7-38.1,80-64c3-8.3,15-41.6-3.6-68.3
					c-13-18.6-33.6-23.4-40.8-25.1c-20.7-4.8-55-3.8-70,19.1c-1.1,1.7-10.4,16.5-5.6,34.2c3.9,14.2,16.8,30.5,33.8,30.3
					c23.9-0.2,39.9-32.6,34.6-40.2c-1.7-2.4-5.8-2.7-10.4-2.1"/>
				<path class="st0" d="M276.2,1071.6c15.5,29.4,44.8,48.3,76,48c43.8-0.4,70.7-38.1,80-64c3-8.3,15-41.6-3.6-68.3
					c-13-18.6-33.6-23.4-40.8-25.1c-20.7-4.8-55-3.8-70,19.1c-1.1,1.7-10.4,16.5-5.6,34.2c3.9,14.2,16.8,30.5,33.8,30.3
					c23.9-0.2,39.9-32.6,34.6-40.2c-1.7-2.4-5.8-2.7-10.4-2.1"/>
				<path class="st0" d="M468.3,1071.6c15.5,29.4,44.8,48.3,76,48c43.8-0.4,70.7-38.1,80-64c3-8.3,15-41.6-3.6-68.3
					c-13-18.6-33.6-23.4-40.8-25.1c-20.7-4.8-55-3.8-70,19.1c-1.1,1.7-10.4,16.5-5.6,34.2c3.9,14.2,16.8,30.5,33.8,30.3
					c23.9-0.2,39.9-32.6,34.6-40.2c-1.7-2.4-5.8-2.7-10.4-2.1"/>
			</g>
		</g>
		<g id="row2">
			<g>
				<path class="st0" d="M71.8,844.8c15.5,29.4,44.8,48.3,76,48c43.8-0.4,70.7-38.1,80-64c3-8.3,15-41.6-3.6-68.3
					c-13-18.6-33.6-23.4-40.8-25.1c-20.7-4.8-55-3.8-70,19.1c-1.1,1.7-10.4,16.5-5.6,34.2c3.9,14.2,16.8,30.5,33.8,30.3
					c23.9-0.2,39.9-32.6,34.6-40.2c-1.7-2.4-5.8-2.7-10.4-2.1"/>
				<path class="st0" d="M275.2,844.8c15.5,29.4,44.8,48.3,76,48c43.8-0.4,70.7-38.1,80-64c3-8.3,15-41.6-3.6-68.3
					c-13-18.6-33.6-23.4-40.8-25.1c-20.7-4.8-55-3.8-70,19.1c-1.1,1.7-10.4,16.5-5.6,34.2c3.9,14.2,16.8,30.5,33.8,30.3
					c23.9-0.2,39.9-32.6,34.6-40.2c-1.7-2.4-5.8-2.7-10.4-2.1"/>
				<path class="st0" d="M467.3,844.8c15.5,29.4,44.8,48.3,76,48c43.8-0.4,70.7-38.1,80-64c3-8.3,15-41.6-3.6-68.3
					c-13-18.6-33.6-23.4-40.8-25.1c-20.7-4.8-55-3.8-70,19.1c-1.1,1.7-10.4,16.5-5.6,34.2c3.9,14.2,16.8,30.5,33.8,30.3
					c23.9-0.2,39.9-32.6,34.6-40.2c-1.7-2.4-5.8-2.7-10.4-2.1"/>
			</g>
		</g>
		<g id="row3">
			<g>
				<path class="st0" d="M66.1,618c15.5,29.4,44.8,48.3,76,48c43.8-0.4,70.7-38.1,80-64c3-8.3,15-41.6-3.6-68.3
					c-13-18.6-33.6-23.4-40.8-25.1c-20.7-4.8-55-3.8-70,19.1c-1.1,1.7-10.4,16.5-5.6,34.2c3.9,14.2,16.8,30.5,33.8,30.3
					c23.9-0.2,39.9-32.6,34.6-40.2c-1.7-2.4-5.8-2.7-10.4-2.1"/>
				<path class="st0" d="M269.5,618c15.5,29.4,44.8,48.3,76,48c43.8-0.4,70.7-38.1,80-64c3-8.3,15-41.6-3.6-68.3
					c-13-18.6-33.6-23.4-40.8-25.1c-20.7-4.8-55-3.8-70,19.1c-1.1,1.7-10.4,16.5-5.6,34.2c3.9,14.2,16.8,30.5,33.8,30.3
					c23.9-0.2,39.9-32.6,34.6-40.2c-1.7-2.4-5.8-2.7-10.4-2.1"/>
				<path class="st0" d="M461.7,618c15.5,29.4,44.8,48.3,76,48c43.8-0.4,70.7-38.1,80-64c3-8.3,15-41.6-3.6-68.3
					c-13-18.6-33.6-23.4-40.8-25.1c-20.7-4.8-55-3.8-70,19.1c-1.1,1.7-10.4,16.5-5.6,34.2c3.9,14.2,16.8,30.5,33.8,30.3
					c23.9-0.2,39.9-32.6,34.6-40.2c-1.7-2.4-5.8-2.7-10.4-2.1"/>
			</g>
		</g>
		<g id="row4">
			<g>
				<path class="st0" d="M59.6,403.8c15.5,29.4,44.8,48.3,76,48c43.8-0.4,70.7-38.1,80-64c3-8.3,15-41.6-3.6-68.3
					c-13-18.6-33.6-23.4-40.8-25.1c-20.7-4.8-55-3.8-70,19.1c-1.1,1.7-10.4,16.5-5.6,34.2c3.9,14.2,16.8,30.5,33.8,30.3
					c23.9-0.2,39.9-32.6,34.6-40.2c-1.7-2.4-5.8-2.7-10.4-2.1"/>
				<path class="st0" d="M263.1,403.8c15.5,29.4,44.8,48.3,76,48c43.8-0.4,70.7-38.1,80-64c3-8.3,15-41.6-3.6-68.3
					c-13-18.6-33.6-23.4-40.8-25.1c-20.7-4.8-55-3.8-70,19.1c-1.1,1.7-10.4,16.5-5.6,34.2c3.9,14.2,16.8,30.5,33.8,30.3
					c23.9-0.2,39.9-32.6,34.6-40.2c-1.7-2.4-5.8-2.7-10.4-2.1"/>
				<path class="st0" d="M455.2,403.8c15.5,29.4,44.8,48.3,76,48c43.8-0.4,70.7-38.1,80-64c3-8.3,15-41.6-3.6-68.3
					c-13-18.6-33.6-23.4-40.8-25.1c-20.7-4.8-55-3.8-70,19.1c-1.1,1.7-10.4,16.5-5.6,34.2c3.9,14.2,16.8,30.5,33.8,30.3
					c23.9-0.2,39.9-32.6,34.6-40.2c-1.7-2.4-5.8-2.7-10.4-2.1"/>
			</g>
		</g>
		<g id="row5">
			<g>
				<path class="st0" d="M54,177c15.5,29.4,44.8,48.3,76,48c43.8-0.4,70.7-38.1,80-64c3-8.3,15-41.6-3.6-68.3
					c-13-18.6-33.6-23.4-40.8-25.1c-20.7-4.8-55-3.8-70,19.1c-1.1,1.7-10.4,16.5-5.6,34.2c3.9,14.2,16.8,30.5,33.8,30.3
					c23.9-0.2,39.9-32.6,34.6-40.2c-1.7-2.4-5.8-2.7-10.4-2.1"/>
				<path class="st0" d="M257.4,177c15.5,29.4,44.8,48.3,76,48c43.8-0.4,70.7-38.1,80-64c3-8.3,15-41.6-3.6-68.3
					c-13-18.6-33.6-23.4-40.8-25.1c-20.7-4.8-55-3.8-70,19.1c-1.1,1.7-10.4,16.5-5.6,34.2c3.9,14.2,16.8,30.5,33.8,30.3
					c23.9-0.2,39.9-32.6,34.6-40.2c-1.7-2.4-5.8-2.7-10.4-2.1"/>
				<path class="st0" d="M449.6,177c15.5,29.4,44.8,48.3,76,48c43.8-0.4,70.7-38.1,80-64c3-8.3,15-41.6-3.6-68.3
					c-13-18.6-33.6-23.4-40.8-25.1c-20.7-4.8-55-3.8-70,19.1c-1.1,1.7-10.4,16.5-5.6,34.2c3.9,14.2,16.8,30.5,33.8,30.3
					c23.9-0.2,39.9-32.6,34.6-40.2c-1.7-2.4-5.8-2.7-10.4-2.1"/>
			</g>
		</g>
</svg>
