
<svg version="1.1" xmlns="http://www.w3.org/2000/svg" xmlns:xlink="http://www.w3.org/1999/xlink" x="0px" y="0px"
	 viewBox="0 0 119 49.7" style="enable-background:new 0 0 119 49.7;" xml:space="preserve">
	 	<defs>
			<style type="text/css">
				#face13 {
					fill: #D6B6FF;
					animation-iteration-count: infinite;
				    animation-direction: reverse;
				    animation: face1 2.5s infinite ease-in-out;
				}

				@keyframes face1 {
					0% {
						fill: #D6B6FF;
					}
					100% {
						fill: #57A9DA
					}
				}

				#face24 {
				 	fill: #57A9DA;
				 	animation-iteration-count: infinite;
				    animation-direction: reverse;
				    animation: face2 2.5s infinite ease-in-out;
				}

				@keyframes face2 {
					0% {
						fill: #57A9DA;
					}
					100% {
						fill: #D6B6FF;
					}
				}

				#hair13 {
					fill: #5637C4;
					animation-iteration-count: infinite;
				    animation-direction: reverse;
				    animation: hair1 2.5s infinite ease-in-out;
				}
			

			    @keyframes hair1 {
			    	0% {
			    		fill: #5637C4;
			    	}
			    	100% {
						fill: #F9B58B;

			    	}
			    }

				#hair24 {
					fill: #F9B58B;
					animation-iteration-count: infinite;
				    animation-direction: reverse;
				    animation: hair2 2.5s infinite ease-in-out;
				}

				@keyframes hair2 {
					0% {
			    		fill: #F9B58B;
			    	}
			    	100% {
						fill: #5637C4;

			    	}
				}

				#pants13 {
					fill:#9ACBEB;
					animation-iteration-count: infinite;
				    animation-direction: reverse;
				    animation: pants1 2.5s infinite ease-in-out;
				}

				@keyframes pants1 {
					0% {
						fill:#9ACBEB;
					}
					100% {
						fill:#BD1CD3;
					}
				}

				#pants24{
					fill:#BD1CD3;
					animation-iteration-count: infinite;
				    animation-direction: reverse;
				    animation: pants2 2.5s infinite ease-in-out;
				}

				@keyframes pants2 {
					0% {
						fill:#BD1CD3;
					}
					100% {
						fill:#9ACBEB;
					}
				}
					

				#shoes13 {
					fill: #B8E986;
					animation-iteration-count: infinite;
				    animation-direction: reverse;
				    animation: shoes1 2.5s infinite ease-in-out;
				}

				@keyframes shoes1 {
					0% {
						fill:#B8E986;
					}
					100% {
						fill: #FAC44E;
					}
				}

				#shoes24 {
					fill: #FAC44E;
					animation-iteration-count: infinite;
				    animation-direction: reverse;
				    animation: shoes2 2.5s infinite ease-in-out;
				}

				@keyframes shoes2 {
					0% {
						fill: #FAC44E;
					}
					100% {
						fill:#B8E986;
					}
				}
		
				#torso13{
					fill:#59D3C0;
					animation-iteration-count: infinite;
				    animation-direction: reverse;
				    animation: torso1 2.5s infinite ease-in-out;
				}

				@keyframes torso1 {
					0% {
						fill: #59D3C0;
					}
					100% {
						fill: #F47DA8;
					}

				}

				#torso24 {
					fill:#F47DA8;
					animation-iteration-count: infinite;
				    animation-direction: reverse;
				    animation: torso2 2.5s infinite ease-in-out;
				}

				@keyframes torso2 {
					0% {
						fill: #F47DA8;
					}
					100% {
						fill: #59D3C0;
					}
				}

				#arm24 {
					fill:#2B8A70;
					animation-iteration-count: infinite;
				    animation-direction: reverse;
				    animation: arm2 2.5s infinite ease-in-out;
				}

				@keyframes arm2 {
					0% {
						fill:#2B8A70;
					}
					100% {
						fill:#F47DA8;
					}
				}

				#arm13 {
					fill:#F47DA8;
					animation-iteration-count: infinite;
				    animation-direction: reverse;
				    animation: arm1 2.5s infinite ease-in-out;
				}

				@keyframes arm1 {
					0% {
					 	fill:#F47DA8;
					}
					100% {
						fill:#2B8A70;
					}
				}

			
			</style>
		</defs>
		<g id="face24">
			<path class="st0" d="M104.6,19.7l0.1,0.5v0.5V21l1.6,0.5l0.1-0.4v-0.5l0.2-0.4l0.3-0.3l0.4,0h0.5l0.4,0l0.6-0.1l0.5-0.1l0.5-0.2
				l0.4-0.3l0.3-0.3v-0.3l0.3-0.2l0.3-0.3l-0.2-0.3h0.6l-0.1-0.4l0-0.4h0.3c0,0,0.3-0.1,0.3-0.2c0,0,0.1,0,0.2-0.2s0-0.8,0-0.8
				c0,0-0.8,0-0.8,0h0c0,0-0.2,0-0.3,0l-0.3-0.2l-0.2-0.6l0-0.5l0-0.7l0-0.9l-1.7-3.5h-2.5l-1.4,1.1l-0.9,1.4l-1,1.9l-0.5,1.6v1.3v0.8
				l0.8,0.7L104.6,19.7z"/>
			<path class="st0" d="M44.7,19.7l0.1,0.5v0.5V21l1.6,0.5l0.1-0.4v-0.5l0.2-0.4L47,20l0.4,0h0.5l0.4,0l0.6-0.1l0.5-0.1l0.5-0.2
				l0.4-0.3l0.3-0.3v-0.3l0.3-0.2l0.3-0.3l-0.2-0.3h0.6l-0.1-0.4l0-0.4h0.3c0,0,0.3-0.1,0.3-0.2c0,0,0.1,0,0.2-0.2s0-0.8,0-0.8
				c0,0-0.8,0-0.8,0h0c0,0-0.2,0-0.3,0l-0.3-0.2l-0.2-0.6l0-0.5l0-0.7l0-0.9l-1.7-3.5h-2.5l-1.4,1.1L44.2,12l-1,1.9l-0.5,1.6v1.3v0.8
				l0.8,0.7L44.7,19.7z"/>
		</g>
		<g id="face13">
			<path class="st0" d="M74.6,19.7l0.1,0.5v0.5V21l1.6,0.5l0.1-0.4v-0.5l0.2-0.4l0.3-0.3l0.4,0h0.5l0.4,0l0.6-0.1l0.5-0.1l0.5-0.2
				l0.4-0.3l0.3-0.3v-0.3l0.3-0.2l0.3-0.3l-0.2-0.3h0.6l-0.1-0.4l0-0.4h0.3c0,0,0.3-0.1,0.3-0.2c0,0,0.1,0,0.2-0.2
				c0.1-0.2,0-0.8,0-0.8c0,0-0.8,0-0.8,0l0,0c0,0-0.2,0-0.3,0l-0.3-0.2l-0.2-0.6l0-0.5l0-0.7l0-0.9l-1.7-3.5h-2.5L75,10.6L74.1,12
				l-1,1.9l-0.5,1.6v1.3v0.8l0.8,0.7L74.6,19.7z"/>
			<path class="st0" d="M14.8,19.6l0.1,0.5v0.5v0.3l1.6,0.5l0.1-0.4v-0.5l0.2-0.4l0.3-0.2l0.4,0h0.5l0.4,0l0.6-0.1l0.5-0.1l0.5-0.2
				l0.4-0.3l0.3-0.3v-0.2l0.3-0.2l0.3-0.3L21,17.8h0.6l-0.1-0.4l0-0.4h0.3c0,0,0.3-0.1,0.3-0.2c0,0,0.1,0,0.2-0.2c0.1-0.2,0-0.8,0-0.8
				c0,0-0.8,0-0.8,0h0c0,0-0.2,0-0.3,0l-0.3-0.2l-0.2-0.6l0-0.5l0-0.7l0-0.9L19,9.4h-2.5l-1.4,1.1L14.3,12l-1,1.9l-0.5,1.5v1.3v0.8
				l0.8,0.7L14.8,19.6z"/>
		</g>
		<g id="shoes24">
			<path class="st1" d="M111.7,43.1l0.4,1.8l4.8-0.3c0,0-0.7-2.7-2.6-2.1S111.7,43.1,111.7,43.1"/>
			<path class="st1" d="M101,41.5l-1.2,1.4l2.7,2h1.9c0,0,0.5-1.8-1.7-2.3"/>
			<path class="st1" d="M51.8,43.2l0.4,1.8l4.8-0.3c0,0-0.7-2.7-2.6-2.1C52.4,43,51.8,43.2,51.8,43.2"/>
			<path class="st1" d="M41.2,41.5l-1.2,1.4l2.7,2h1.9c0,0,0.5-1.8-1.7-2.3"/>
		</g>
		<g id="shoes13">
			<path class="st1" d="M21.9,42.9l0.4,1.7l4.8-0.3c0,0-0.7-2.6-2.6-2.1S21.9,42.9,21.9,42.9"/>
			<path class="st1" d="M11.2,41.3L10,42.6l2.7,2h1.9c0,0,0.5-1.8-1.7-2.2"/>
			<path class="st1" d="M81.8,43.2l0.4,1.8l4.8-0.3c0,0-0.7-2.7-2.6-2.1C82.3,43,81.8,43.2,81.8,43.2"/>
			<path class="st1" d="M71.1,41.5l-1.2,1.4l2.7,2h1.9c0,0,0.5-1.8-1.7-2.3"/>
		</g>
		<g id="pants24">
			<path class="st2" d="M104.4,32.2c-0.2,0.2-0.4,0.6-0.6,1.2c-0.2,0.8,0,1.5,0.1,1.7c1.1,0.5,2.3,0.9,3.4,1.4
				c0.9-0.6,1.7-1.1,2.6-1.7c-0.1-0.5-0.2-0.9-0.3-1.4v-0.6L104.4,32.2z"/>
			<polygon class="st2" points="107.4,36.5 110,34.8 114.2,42.4 111.7,43.1 	"/>
			<polygon class="st2" points="104,35.1 106.9,36.3 102.7,42.6 101,41.5 	"/>
			<path class="st2" d="M44.5,32.2c-0.2,0.2-0.4,0.6-0.6,1.2c-0.2,0.8,0,1.5,0.1,1.7c1.1,0.5,2.3,0.9,3.4,1.4c0.9-0.6,1.7-1.1,2.6-1.7
				c-0.1-0.5-0.2-0.9-0.3-1.4v-0.6L44.5,32.2z"/>
			<polygon class="st2" points="47.5,36.5 50.1,34.8 54.3,42.5 51.8,43.2 	"/>
			<polygon class="st2" points="44.1,35.1 47,36.3 42.8,42.7 41.2,41.5 	"/>
		</g>
		<g id="pants13">
			<path class="st2" d="M14.6,32c-0.2,0.2-0.4,0.6-0.6,1.1c-0.2,0.8,0,1.5,0.1,1.7c1.1,0.5,2.3,0.9,3.4,1.4c0.9-0.6,1.7-1.1,2.6-1.7
				c-0.1-0.5-0.2-0.9-0.3-1.4v-0.6L14.6,32z"/>
			<polygon class="st2" points="17.6,36.3 20.2,34.6 24.4,42.2 21.9,42.9 	"/>
			<polygon class="st2" points="14.2,34.9 17.1,36.1 12.9,42.4 11.2,41.3 	"/>
			<path class="st2" d="M74.5,32.2c-0.2,0.2-0.4,0.6-0.6,1.2c-0.2,0.8,0,1.5,0.1,1.7c1.1,0.5,2.3,0.9,3.4,1.4c0.9-0.6,1.7-1.1,2.6-1.7
				c-0.1-0.5-0.2-0.9-0.3-1.4v-0.6L74.5,32.2z"/>
			<polygon class="st2" points="77.5,36.5 80.1,34.8 84.3,42.5 81.8,43.2 	"/>
			<polygon class="st2" points="74,35.1 76.9,36.3 72.7,42.6 71.1,41.5 	"/>
		</g>
		<g id="arm24">
			<path class="st0" d="M108.8,24.3l-1,1.1l0.6,0.8l1.3,0.5l1.4-0.7l0.5-0.5l0.7-0.5l0.4-0.1l0.6-0.5l0.4-0.5V23l-0.3-0.3l-0.4-0.3
				c-0.1-0.1-0.3-0.3-0.6-0.4c-0.5-0.1-0.8,0.1-0.9,0.1l-0.7,0c0,0-0.3,0.2-0.3,0.4l-0.1,0.5l0.2,0.3l0.3,0.4l-1,1L108.8,24.3z"/>
			<path class="st0" d="M101.7,24.3l-0.9,1.1v0.4l0.1,1.1v0.7L101,29l-0.5,0.2l-0.2,0.4v0.5c0,0-0.1,1.1,0.2,1.2c0,0,0.4,0.3,0.5,0.2
				c0,0,0.9,0.2,0.9,0c0,0,1.2,0,1.1-0.3c0,0,0.5-0.1,0.5-0.3c0,0,0.6,0,0.5-0.3c0,0,0-1.8-0.3-1.9c-0.3-0.1-0.8-0.1-0.8-0.1l-0.4-0.1
				v-1.6V26l0.2-0.4L101.7,24.3z"/>
			<path class="st0" d="M49,24.3l-1,1.1l0.6,0.8l1.3,0.5l1.4-0.7l0.5-0.5l0.7-0.5l0.4-0.1l0.6-0.5l0.4-0.5V23l-0.3-0.3l-0.4-0.3
				c-0.1-0.1-0.3-0.3-0.6-0.4c-0.5-0.1-0.8,0.1-0.9,0.1l-0.7,0c0,0-0.3,0.2-0.3,0.4L50.5,23l0.2,0.3l0.3,0.4l-1,1L49,24.3z"/>
			<path class="st0" d="M41.8,24.3L41,25.4v0.4l0.1,1.1v0.7l0.1,1.4l-0.5,0.2l-0.2,0.4v0.5c0,0-0.1,1.1,0.2,1.2c0,0,0.4,0.3,0.5,0.2
				c0,0,0.9,0.2,0.9,0c0,0,1.2,0,1.1-0.3c0,0,0.5-0.1,0.5-0.3c0,0,0.6,0,0.5-0.3c0,0,0-1.8-0.3-1.9s-0.8-0.1-0.8-0.1l-0.4-0.1v-1.6
				v-1.2l0.2-0.4L41.8,24.3z"/>
		</g>
		<g id="arm13">
			<path class="st0" d="M19,24.2l-1,1.1l0.6,0.8l1.3,0.5l1.4-0.7l0.5-0.5l0.7-0.5l0.4-0.1l0.6-0.5l0.4-0.5v-0.9l-0.3-0.3l-0.4-0.3
				c-0.1-0.1-0.3-0.3-0.6-0.4c-0.5-0.1-0.8,0.1-0.9,0.1L21,22c0,0-0.3,0.2-0.3,0.4l-0.1,0.5l0.2,0.3l0.3,0.4l-1,1L19,24.2z"/>
			<path class="st0" d="M11.9,24.2L11,25.3v0.4l0.1,1.1v0.7l0.1,1.4l-0.5,0.2l-0.2,0.4v0.5c0,0-0.1,1.1,0.2,1.2c0,0,0.4,0.3,0.5,0.2
				c0,0,0.9,0.2,0.9,0c0,0,1.2,0,1.1-0.3c0,0,0.5-0.1,0.5-0.3c0,0,0.6,0,0.5-0.3c0,0,0-1.8-0.3-1.9c-0.3-0.1-0.8-0.1-0.8-0.1l-0.4-0.1
				v-1.6v-1.1l0.2-0.4L11.9,24.2z"/>
			<path class="st0" d="M78.9,24.3l-1,1.1l0.6,0.8l1.3,0.5l1.4-0.7l0.5-0.5l0.7-0.5l0.4-0.1l0.6-0.5l0.4-0.5V23l-0.3-0.3l-0.4-0.3
				c-0.1-0.1-0.3-0.3-0.6-0.4C82,21.8,81.6,22,81.5,22l-0.7,0c0,0-0.3,0.2-0.3,0.4L80.4,23l0.2,0.3l0.3,0.4l-1,1L78.9,24.3z"/>
			<path class="st0" d="M71.7,24.3l-0.9,1.1v0.4l0.1,1.1v0.7l0.1,1.4l-0.5,0.2l-0.2,0.4v0.5c0,0-0.1,1.1,0.2,1.2c0,0,0.4,0.3,0.5,0.2
				c0,0,0.9,0.2,0.9,0c0,0,1.2,0,1.1-0.3c0,0,0.5-0.1,0.5-0.3c0,0,0.6,0,0.5-0.3c0,0,0-1.8-0.3-1.9c-0.3-0.1-0.8-0.1-0.8-0.1l-0.4-0.1
				v-1.6v-1.2l0.2-0.4L71.7,24.3z"/>
		</g>
		<g id="hair24">
			<path class="st3" d="M104.6,19.7c0.2,0.6,0.4,1.5,0.4,2.7c-0.1,1.8-0.8,3.1-1.2,3.7c-1.1,0.1-2.2,0.3-3.3,0.4
				c-1.1-0.1-2.4-0.4-3.9-1c-2-0.7-3.4-1.7-4.4-2.5c2.6-4.1,3.8-6.9,4.5-8.7c0.2-0.5,1.3-4,1.3-4l0,0c-0.1,0.3-0.2,0.6-0.3,0.9
				c0.4-0.8,0.8-1.6,1.2-2.4l0.5-0.6c0.5-0.4,1-0.9,1.5-1.3c0.4-0.2,0.7-0.4,1.1-0.5l0.5-0.3c0.5-0.1,0.9-0.2,1.4-0.3
				c0.8-0.1,2.2-0.1,3.8,0.4c0.7,0.3,1.3,0.6,1.8,0.9c0.4,0.4,0.8,0.8,1.2,1.1l0.5,0.4l0.6,0.9l0.3,0.6v0.5v0.6l-0.6-0.8l0.1,0.7
				l0.1,0.8l0,0.8l-0.3,0.8l-0.6-0.8l-0.6-0.8l-0.6-0.6l-0.5-0.6l-0.7-0.6l-0.5-0.2l0.8,1.1l0.3,0.5l0.2,0.6c-0.9-0.3-1.8-0.5-2.7-0.8
				l0.1,0.7l0.1,0.9v0.5l-0.1,0.6l-0.3,0.8l-0.3,0.6l-0.4,0.4l-0.4-0.6l-0.4-0.3l-0.6,0l-0.5,0.2l-0.2,0.4l-0.1,0.6l0,0.6l0.1,0.6
				l0.3,0.5l0.4,0.4l0.4,0.1l0.6-0.1L104.6,19.7z"/>
			<g>
				<path class="st3" d="M44.7,19.7c0.2,0.6,0.4,1.5,0.4,2.7c-0.1,1.8-0.8,3.1-1.2,3.7c-1.1,0.1-2.2,0.3-3.3,0.4
					c-1.1-0.1-2.4-0.4-3.9-1c-2-0.7-3.4-1.7-4.4-2.5c2.6-4.1,3.8-6.9,4.5-8.7c0.2-0.5,1.3-4,1.3-4l0,0c-0.1,0.3-0.2,0.6-0.3,0.9
					c0.4-0.8,0.8-1.6,1.2-2.4l0.5-0.6c0.5-0.4,1-0.9,1.5-1.3c0.4-0.2,0.7-0.4,1.1-0.5l0.5-0.3c0.5-0.1,0.9-0.2,1.4-0.3
					c0.8-0.1,2.2-0.1,3.8,0.4c0.7,0.3,1.3,0.6,1.8,0.9c0.4,0.4,0.8,0.8,1.2,1.1l0.5,0.4l0.6,0.9l0.3,0.6v0.5v0.6l-0.6-0.8l0.1,0.7
					l0.1,0.8l0,0.8l-0.3,0.8l-0.6-0.8L49.9,12l-0.6-0.6l-0.5-0.6L48,10.2L47.5,10l0.8,1.1l0.3,0.5l0.2,0.6c-0.9-0.3-1.8-0.5-2.7-0.8
					l0.1,0.7l0.1,0.9v0.5l-0.1,0.6L46,15.1l-0.3,0.6l-0.4,0.4L45,15.5l-0.4-0.3l-0.6,0l-0.5,0.2l-0.2,0.4l-0.1,0.6l0,0.6l0.1,0.6
					l0.3,0.5l0.4,0.4l0.4,0.1l0.6-0.1L44.7,19.7z"/>
			</g>
		</g>
		<g id="hair13">
			<path class="st3" d="M74.6,19.7c0.2,0.6,0.4,1.5,0.4,2.7c-0.1,1.8-0.8,3.1-1.2,3.7c-1.1,0.1-2.2,0.3-3.3,0.4
				c-1.1-0.1-2.4-0.4-3.9-1c-2-0.7-3.4-1.7-4.4-2.5c2.6-4.1,3.8-6.9,4.5-8.7c0.2-0.5,1.3-4,1.3-4l0,0c-0.1,0.3-0.2,0.6-0.3,0.9
				c0.4-0.8,0.8-1.6,1.2-2.4l0.5-0.6c0.5-0.4,1-0.9,1.5-1.3c0.4-0.2,0.7-0.4,1.1-0.5l0.5-0.3c0.5-0.1,0.9-0.2,1.4-0.3
				c0.8-0.1,2.2-0.1,3.8,0.4c0.7,0.3,1.3,0.6,1.8,0.9c0.4,0.4,0.8,0.8,1.2,1.1l0.5,0.4l0.6,0.9l0.3,0.6v0.5v0.6l-0.6-0.8l0.1,0.7
				l0.1,0.8l0,0.8l-0.3,0.8l-0.6-0.8L79.8,12l-0.6-0.6l-0.5-0.6l-0.7-0.6L77.4,10l0.8,1.1l0.3,0.5l0.2,0.6c-0.9-0.3-1.8-0.5-2.7-0.8
				l0.1,0.7l0.1,0.9v0.5l-0.1,0.6l-0.3,0.8l-0.3,0.6l-0.4,0.4l-0.4-0.6l-0.4-0.3l-0.6,0l-0.5,0.2l-0.2,0.4L73,16.4l0,0.6l0.1,0.6
				l0.3,0.5l0.4,0.4l0.4,0.1l0.6-0.1L74.6,19.7z"/>
			<path class="st3" d="M14.8,19.6c0.2,0.6,0.4,1.5,0.4,2.7c-0.1,1.8-0.8,3-1.2,3.6c-1.1,0.1-2.2,0.3-3.3,0.4c-1.1-0.1-2.4-0.4-3.9-1
				c-2-0.7-3.4-1.7-4.4-2.5c2.6-4,3.8-6.8,4.5-8.6c0.2-0.5,1.3-3.9,1.3-3.9l0,0C8,10.7,7.9,11,7.8,11.3c0.4-0.8,0.8-1.6,1.2-2.4
				l0.5-0.6c0.5-0.4,1-0.8,1.5-1.3c0.4-0.2,0.7-0.4,1.1-0.5l0.5-0.3c0.5-0.1,0.9-0.2,1.4-0.3c0.8-0.1,2.2-0.1,3.8,0.4
				c0.7,0.3,1.3,0.6,1.8,0.9c0.4,0.4,0.8,0.8,1.2,1.1L21,8.7l0.6,0.9l0.3,0.6v0.5v0.6l-0.6-0.8l0.1,0.7l0.1,0.8l0,0.8l-0.3,0.8
				l-0.6-0.8L20,12l-0.6-0.6l-0.5-0.6l-0.7-0.6L17.6,10l0.8,1.1l0.3,0.5l0.2,0.6c-0.9-0.3-1.8-0.5-2.7-0.8l0.1,0.7l0.1,0.9v0.5
				l-0.1,0.6L16.1,15l-0.3,0.6L15.4,16l-0.4-0.6l-0.4-0.3l-0.6,0l-0.5,0.2l-0.2,0.4l-0.1,0.6l0,0.6l0.1,0.6l0.3,0.5l0.4,0.4l0.4,0.1
				l0.6-0.1L14.8,19.6z"/>
		</g>
		<g id="torso24">
			<path class="torso" d="M44.8,21l1.6,0.5l0.5,0.5l0.8,0.6l0.7,0.7l0.8,0.4l0.4,0.2v0.9L49,25.4l-0.4,0.8l0.5,0.3l0.6,2.7l0.2,1.7v1.1
				v1c0,0-1.2,0.4-1.8,0.3c-0.6-0.1-1.8-0.3-1.8-0.3l-1.1-0.4l-0.7-0.5l0.6-1.6l0-1.8L45,27l-0.5-2.5v-0.5L43,26l-0.6-0.2l-0.4-0.6
				l-0.4-0.7v-0.5l1.1-0.7l0.6-0.7l0.6-0.5L44.8,21z"/>
			<path class="torso" d="M104.6,21l1.6,0.5l0.5,0.5l0.8,0.6l0.7,0.7l0.8,0.4l0.4,0.2v0.9l-0.5,0.5l-0.4,0.8l0.5,0.3l0.6,2.7l0.2,1.7V32
				v1c0,0-1.2,0.4-1.8,0.3c-0.6-0.1-1.8-0.3-1.8-0.3l-1.1-0.4l-0.7-0.5l0.6-1.6l0-1.8l-0.2-1.6l-0.5-2.5V24l-1.5,2l-0.6-0.2l-0.4-0.6
				l-0.4-0.7V24l1.1-0.7l0.6-0.7l0.6-0.5L104.6,21z"/>
		</g>
		<g id="torso13">
			<path class="torso" d="M74.7,21l1.6,0.5l0.5,0.5l0.8,0.6l0.7,0.7l0.8,0.4l0.4,0.2v0.9l-0.5,0.5l-0.4,0.8l0.5,0.3l0.6,2.7l0.2,1.7v1.1
				v1c0,0-1.2,0.4-1.8,0.3s-1.8-0.3-1.8-0.3l-1.1-0.4l-0.7-0.5l0.6-1.6l0-1.8L74.9,27l-0.5-2.5v-0.5l-1.5,2l-0.6-0.2l-0.4-0.6
				l-0.4-0.7v-0.5l1.1-0.7l0.6-0.7l0.6-0.5L74.7,21z"/>
			<path class="torso" d="M14.9,20.9l1.6,0.5l0.5,0.5l0.8,0.6l0.7,0.7l0.8,0.4l0.4,0.2v0.9l-0.5,0.5l-0.4,0.8l0.5,0.3l0.6,2.7l0.2,1.7
				v1.1v1c0,0-1.2,0.4-1.8,0.3s-1.8-0.3-1.8-0.3l-1.1-0.4l-0.7-0.5l0.6-1.6l0-1.8l-0.2-1.6l-0.5-2.5v-0.5l-1.5,2l-0.6-0.2L12,25.1
				l-0.4-0.7v-0.5l1.1-0.7l0.6-0.7l0.6-0.5L14.9,20.9z"/>
		</g>
</svg>
