
<svg width="616px" height="393px" viewBox="0 0 616 393" version="1.1" xmlns="http://www.w3.org/2000/svg" xmlns:xlink="http://www.w3.org/1999/xlink">
    <!-- Generator: Sketch 46.2 (44496) - http://www.bohemiancoding.com/sketch -->
    <desc>Created with Sketch.</desc>
    <defs>
        <style type="text/css">
            #layer1{
                        fill:#E3A6C4;
                        stroke:#03E4C0;
                        animation: layer1 3s ease-in-out alternate infinite;
                        stroke-dasharray: 100;
                        
                        stroke-dashoffset: 3000;
                        animation-iteration-count: infinite;
                    }

                @-webkit-keyframes layer1 {
                    from {
                        stroke-width:1;
                         opacity: 0;
                         
                    }
                    to {
                        stroke: #01A1FB;
                        stroke-dashoffset: 0;
                        stroke-width: 4;
                        opacity: 100;
                        
                      }
                }

            #layer2{
                    fill:#E3A6C4;
                    stroke:#23B1FD;
                    animation: layer2 6s ease-in-out alternate infinite;
                    stroke-dasharray: 100;
                    
                    stroke-dashoffset: 1000;
                    animation-iteration-count: infinite;
                }

            @-webkit-keyframes layer2 {
                from {
                    stroke-width:1;
                    opacity: 100;
                }
                to {
                    stroke: #FFE31E;
                    stroke-dashoffset: 0;
                    stroke-width: 4;
                    opacity: 0;
                  }
            }

            #layer3{
                    fill:#E3A6C4;
                    stroke:#B0295E;
                    animation: layer3 3s ease-in-out alternate infinite;
                    stroke-dasharray: 100;
                    
                    stroke-dashoffset: 3000;
                    animation-iteration-count: infinite;
                }

            @-webkit-keyframes layer3 {
                from {
                    stroke-width:1;
                    opacity: 0;
                }
                to {
                    stroke: #1FDFE4;
                    stroke-dashoffset: 0;
                    stroke-width: 4;
                    opacity: 100;
                  }
            }

            #layer4{
                    fill:#E3A6C4;
                    stroke:#1FDFE4;
                    animation: layer4 6s ease-in-out alternate infinite;
                    stroke-dasharray: 100;
                    
                    stroke-dashoffset: 1000;
                    animation-iteration-count: infinite;
                }

            @-webkit-keyframes layer4 {
                from {
                    stroke-width:1;
                    opacity: 100;
                }
                to {
                    stroke: #B0295E;
                    stroke-dashoffset: 0;
                    stroke-width: 2;
                    opacity: 0;
                  }
            }

            #layer5{
                    fill:#E3A6C4;
                    stroke:#FFE31E;
                    animation: layer5 3s ease-in-out alternate infinite;
                    stroke-dasharray: 100;      
                    stroke-dashoffset: 3000;
                    animation-iteration-count: infinite;
                }

            @-webkit-keyframes layer5 {
                from {
                    stroke-width:1;
                    opacity: 0;
                  
                }
                to {
                    stroke: #23B1FD;
                    stroke-dashoffset: 0;
                    stroke-width: 2;
                    opacity: 100;
                   
                  }
            }

            #layer6{
                    fill:#E3A6C4;
                    stroke: #E3A6C4;
                    animation: layer6 6s ease-in-out alternate infinite;
                    stroke-dasharray: 100;
                    
                    stroke-dashoffset: 1000;
                    animation-iteration-count: infinite;
                }

            @-webkit-keyframes layer6 {
                from {
                    stroke-width:1;
                    opacity: 100;
                }
                to {
                    stroke: #03E4C0;
                    stroke-dashoffset: 0;
                    stroke-width: 4;
                    opacity: 0;
                  }
            }

            #layer7{
                    fill:#E3A6C4;
                    stroke:#23B1FD;
                    animation: layer7 3s ease-in-out alternate infinite;
                    stroke-dasharray: 100;
                    
                    stroke-dashoffset: 3000;
                    animation-iteration-count: infinite;
                }

            @-webkit-keyframes layer7 {
                from {
                    stroke-width:1;
                    opacity: 0;
                }
                to {
                    stroke-dashoffset: 0;
                    stroke-width: 4;
                    opacity: 100;
                  }
            }

            #layer8{
                    fill:#E3A6C4;
                    stroke:#01A1FB;
                    animation: layer8 6s ease-in-out alternate infinite;
                    stroke-dasharray: 100;
                    stroke-dashoffset: 1000;
                    animation-iteration-count: infinite;
                }

            @-webkit-keyframes layer8 {
                from {
                    stroke-width:1;
                    opacity: 100;
                }
                to {
                
                    stroke: #03E4C0;
                    stroke-dashoffset: 0;
                    stroke-width: 4;
                    opacity: 0;
                  }
            }

            #layer9{
                    fill:#E3A6C4;
                    stroke:#F68558;
                    animation: layer9 3s ease-in-out alternate infinite;
                    stroke-dasharray: 100;
                    stroke-dashoffset: 3000;
                    animation-iteration-count: infinite;
                }

            @-webkit-keyframes layer9 {
                from {
                    stroke-width:1;
                    opacity: 0;
                }
                to {
                    stroke: #87BE48;
                    stroke-dashoffset: 0;
                    stroke-width: 4;
                    opacity: 100;
                  }
            }

            #layer10{
                    fill:#E3A6C4;
                    stroke:#8788C1;
                    animation: layer10 6s ease-in-out alternate infinite;
                    stroke-dasharray: 100;
                    
                    stroke-dashoffset: 1000;
                    animation-iteration-count: infinite;
                }

            @-webkit-keyframes layer10 {
                from {
                    stroke-width:1;
                    opacity: 100;
                }
                to {
                    stroke: #76C3B5;
                    stroke-dashoffset: 0;
                    stroke-width: 4;
                    opacity: 0;
                  }
            }

            #layer11{
                    fill:#E3A6C4;
                    stroke:#E2949C;
                    animation: layer11 3s ease-in-out alternate infinite;
                    stroke-dasharray: 100;
                    
                    stroke-dashoffset: 3000;
                    animation-iteration-count: infinite;
                }

            @-webkit-keyframes layer11 {
                from {
                    stroke-width:1;
                    opacity: 0;
                }
                to {
                    stroke: #FCDE30;
                    stroke-dashoffset: 0;
                    stroke-width: 4;
                    opacity: 100;
                  }
            }

            #layer12{
                    fill:#E3A6C4;
                    stroke:#EB008B;
                    animation: layer12 6s ease-in-out alternate infinite;
                    stroke-dasharray: 100;
                    stroke-dashoffset: 1000;
                    animation-iteration-count: infinite;
                }

            @-webkit-keyframes layer12 {
                from {
                    stroke-width:1;
                    opacity: 100;
                }
                to {
                    stroke: #81C6C0;
                    stroke-dashoffset: 0;
                    stroke-width: 4;
                    opacity: 0;
                  }
            }
        </style>
    </defs>
    <g id="PDF-Export" stroke="none" stroke-width="1" fill="none" fill-rule="evenodd">
        <g id="Artboard" stroke="#979797">
            <g id="layer1" transform="translate(42.000000, 17.000000)">
                <g id="F">
                    <path d="M1.149375,0.415288881 C2.2018809,27.8141663 12.0997388,54.4250337 6.72375,81.709484" id="Path"></path>
                    <path d="M0.519375,0.672283794 C8.18125,0.730014535 15.843125,0.787745276 23.505,0.845476017" id="Path-2"></path>
                    <polyline id="Path-3" points="5.8275 36.8564226 9.25875 36.8564226 10.584375 36.8564226 11.469375 36.8564226 12.804375 36.8564226 13.696875 36.8564226 14.218125 36.8564226 14.46375 36.8564226 14.58 36.8564226 14.70375 36.8564226 14.82 36.8564226 14.941875 36.8564226 15.065625 36.8564226 15.189375 36.8564226 15.313125 36.8564226"></polyline>
                </g>
                <g id="R" transform="translate(25.000000, 26.000000)">
                    <path d="M0.5625,1.28401693 C0.891276042,8.3785536 1.22005208,15.4730903 1.54882813,22.567627" id="Path-4"></path>
                    <path d="M0.455078125,1.92041016 C2.34039079,0.52656555 12.2727353,-1.48468967 7.96484375,4.18896484 C6.36151847,6.30060427 0.767533723,6.55402259 1.55664063,9.05362956 C3.14564558,14.087026 9.22721354,16.575548 13.0625,20.3365072" id="Path-5"></path>
                </g>
                <path d="M44.4662316,26.2327567 C45.055876,32.8102036 45.6455204,39.3876505 46.2351647,45.9650974" id="I"></path>
                <g id="Y" transform="translate(49.000000, 23.000000)">
                    <path d="M0.214233398,2.57926432 C3.06945801,5.09239366 5.92468262,7.605523 8.77990723,10.1186523" id="Path-7"></path>
                    <path d="M8.17565918,9.45605469 C8.13476562,13.9432509 8.09387207,18.430447 8.05297852,22.9176432" id="Path-8"></path>
                    <path d="M9.0637207,8.98250326 C10.8666992,6.27471246 12.6696777,3.56692166 14.4726562,0.859130859" id="Path-9"></path>
                </g>
                <g id="A" transform="translate(64.000000, 25.000000)">
                    <path d="M0.925998264,19.5796131 C10.2055211,-5.10224416 5.09525905,-5.07994771 16.2086589,18.3537946" id="Path-10"></path>
                    <g id="Group" transform="translate(2.833333, 10.476190)">
                        <path d="M0.647460938,0.950520833 C3.54658565,0.792410714 6.44571036,0.634300595 9.34483507,0.476190476" id="Path-11"></path>
                    </g>
                </g>
                <g id="Y" transform="translate(78.000000, 23.000000)">
                    <path d="M0.221557617,1.24165483 C11.6534717,11.2710967 8.5034999,4.8277113 8.80371094,20.9869496" id="Path-12"></path>
                    <path d="M9.03625488,7.89550781 C10.9204102,5.53338068 12.8045654,3.17125355 14.6887207,0.80912642" id="Path-13"></path>
                </g>
            </g>
            <g id="layer2" transform="translate(42.000000, 143.000000)">
                <g id="F">
                    <path d="M1.149375,0.415288881 C2.2018809,27.8141663 12.0997388,54.4250337 6.72375,81.709484" id="Path"></path>
                    <path d="M0.519375,0.672283794 C8.18125,0.730014535 15.843125,0.787745276 23.505,0.845476017" id="Path-2"></path>
                    <polyline id="Path-3" points="5.8275 36.8564226 9.25875 36.8564226 10.584375 36.8564226 11.469375 36.8564226 12.804375 36.8564226 13.696875 36.8564226 14.218125 36.8564226 14.46375 36.8564226 14.58 36.8564226 14.70375 36.8564226 14.82 36.8564226 14.941875 36.8564226 15.065625 36.8564226 15.189375 36.8564226 15.313125 36.8564226"></polyline>
                </g>
                <g id="R" transform="translate(25.000000, 26.000000)">
                    <path d="M0.5625,1.28401693 C0.891276042,8.3785536 1.22005208,15.4730903 1.54882813,22.567627" id="Path-4"></path>
                    <path d="M0.455078125,1.92041016 C2.34039079,0.52656555 12.2727353,-1.48468967 7.96484375,4.18896484 C6.36151847,6.30060427 0.767533723,6.55402259 1.55664063,9.05362956 C3.14564558,14.087026 9.22721354,16.575548 13.0625,20.3365072" id="Path-5"></path>
                </g>
                <path d="M44.4662316,26.2327567 C45.055876,32.8102036 45.6455204,39.3876505 46.2351647,45.9650974" id="I"></path>
                <g id="Y" transform="translate(49.000000, 23.000000)">
                    <path d="M0.214233398,2.57926432 C3.06945801,5.09239366 5.92468262,7.605523 8.77990723,10.1186523" id="Path-7"></path>
                    <path d="M8.17565918,9.45605469 C8.13476562,13.9432509 8.09387207,18.430447 8.05297852,22.9176432" id="Path-8"></path>
                    <path d="M9.0637207,8.98250326 C10.8666992,6.27471246 12.6696777,3.56692166 14.4726562,0.859130859" id="Path-9"></path>
                </g>
                <g id="A" transform="translate(64.000000, 25.000000)">
                    <path d="M0.925998264,19.5796131 C10.2055211,-5.10224416 5.09525905,-5.07994771 16.2086589,18.3537946" id="Path-10"></path>
                    <g id="Group" transform="translate(2.833333, 10.476190)">
                        <path d="M0.647460938,0.950520833 C3.54658565,0.792410714 6.44571036,0.634300595 9.34483507,0.476190476" id="Path-11"></path>
                    </g>
                </g>
                <g id="Y" transform="translate(78.000000, 23.000000)">
                    <path d="M0.221557617,1.24165483 C11.6534717,11.2710967 8.5034999,4.8277113 8.80371094,20.9869496" id="Path-12"></path>
                    <path d="M9.03625488,7.89550781 C10.9204102,5.53338068 12.8045654,3.17125355 14.6887207,0.80912642" id="Path-13"></path>
                </g>
            </g>
            <g id="layer3" transform="translate(42.000000, 269.000000)">
                <g id="F">
                    <path d="M1.149375,0.415288881 C2.2018809,27.8141663 12.0997388,54.4250337 6.72375,81.709484" id="Path"></path>
                    <path d="M0.519375,0.672283794 C8.18125,0.730014535 15.843125,0.787745276 23.505,0.845476017" id="Path-2"></path>
                    <polyline id="Path-3" points="5.8275 36.8564226 9.25875 36.8564226 10.584375 36.8564226 11.469375 36.8564226 12.804375 36.8564226 13.696875 36.8564226 14.218125 36.8564226 14.46375 36.8564226 14.58 36.8564226 14.70375 36.8564226 14.82 36.8564226 14.941875 36.8564226 15.065625 36.8564226 15.189375 36.8564226 15.313125 36.8564226"></polyline>
                </g>
                <g id="R" transform="translate(25.000000, 26.000000)">
                    <path d="M0.5625,1.28401693 C0.891276042,8.3785536 1.22005208,15.4730903 1.54882813,22.567627" id="Path-4"></path>
                    <path d="M0.455078125,1.92041016 C2.34039079,0.52656555 12.2727353,-1.48468967 7.96484375,4.18896484 C6.36151847,6.30060427 0.767533723,6.55402259 1.55664063,9.05362956 C3.14564558,14.087026 9.22721354,16.575548 13.0625,20.3365072" id="Path-5"></path>
                </g>
                <path d="M44.4662316,26.2327567 C45.055876,32.8102036 45.6455204,39.3876505 46.2351647,45.9650974" id="I"></path>
                <g id="Y" transform="translate(49.000000, 23.000000)">
                    <path d="M0.214233398,2.57926432 C3.06945801,5.09239366 5.92468262,7.605523 8.77990723,10.1186523" id="Path-7"></path>
                    <path d="M8.17565918,9.45605469 C8.13476562,13.9432509 8.09387207,18.430447 8.05297852,22.9176432" id="Path-8"></path>
                    <path d="M9.0637207,8.98250326 C10.8666992,6.27471246 12.6696777,3.56692166 14.4726562,0.859130859" id="Path-9"></path>
                </g>
                <g id="A" transform="translate(64.000000, 25.000000)">
                    <path d="M0.925998264,19.5796131 C10.2055211,-5.10224416 5.09525905,-5.07994771 16.2086589,18.3537946" id="Path-10"></path>
                    <g id="Group" transform="translate(2.833333, 10.476190)">
                        <path d="M0.647460938,0.950520833 C3.54658565,0.792410714 6.44571036,0.634300595 9.34483507,0.476190476" id="Path-11"></path>
                    </g>
                </g>
                <g id="Y" transform="translate(78.000000, 23.000000)">
                    <path d="M0.221557617,1.24165483 C11.6534717,11.2710967 8.5034999,4.8277113 8.80371094,20.9869496" id="Path-12"></path>
                    <path d="M9.03625488,7.89550781 C10.9204102,5.53338068 12.8045654,3.17125355 14.6887207,0.80912642" id="Path-13"></path>
                </g>
            </g>
            <g id="layer4" transform="translate(196.000000, 17.000000)">
                <g id="F">
                    <path d="M1.149375,0.415288881 C2.2018809,27.8141663 12.0997388,54.4250337 6.72375,81.709484" id="Path"></path>
                    <path d="M0.519375,0.672283794 C8.18125,0.730014535 15.843125,0.787745276 23.505,0.845476017" id="Path-2"></path>
                    <polyline id="Path-3" points="5.8275 36.8564226 9.25875 36.8564226 10.584375 36.8564226 11.469375 36.8564226 12.804375 36.8564226 13.696875 36.8564226 14.218125 36.8564226 14.46375 36.8564226 14.58 36.8564226 14.70375 36.8564226 14.82 36.8564226 14.941875 36.8564226 15.065625 36.8564226 15.189375 36.8564226 15.313125 36.8564226"></polyline>
                </g>
                <g id="R" transform="translate(25.000000, 26.000000)">
                    <path d="M0.5625,1.28401693 C0.891276042,8.3785536 1.22005208,15.4730903 1.54882813,22.567627" id="Path-4"></path>
                    <path d="M0.455078125,1.92041016 C2.34039079,0.52656555 12.2727353,-1.48468967 7.96484375,4.18896484 C6.36151847,6.30060427 0.767533723,6.55402259 1.55664063,9.05362956 C3.14564558,14.087026 9.22721354,16.575548 13.0625,20.3365072" id="Path-5"></path>
                </g>
                <path d="M44.4662316,26.2327567 C45.055876,32.8102036 45.6455204,39.3876505 46.2351647,45.9650974" id="I"></path>
                <g id="Y" transform="translate(49.000000, 23.000000)">
                    <path d="M0.214233398,2.57926432 C3.06945801,5.09239366 5.92468262,7.605523 8.77990723,10.1186523" id="Path-7"></path>
                    <path d="M8.17565918,9.45605469 C8.13476562,13.9432509 8.09387207,18.430447 8.05297852,22.9176432" id="Path-8"></path>
                    <path d="M9.0637207,8.98250326 C10.8666992,6.27471246 12.6696777,3.56692166 14.4726562,0.859130859" id="Path-9"></path>
                </g>
                <g id="A" transform="translate(64.000000, 25.000000)">
                    <path d="M0.925998264,19.5796131 C10.2055211,-5.10224416 5.09525905,-5.07994771 16.2086589,18.3537946" id="Path-10"></path>
                    <g id="Group" transform="translate(2.833333, 10.476190)">
                        <path d="M0.647460938,0.950520833 C3.54658565,0.792410714 6.44571036,0.634300595 9.34483507,0.476190476" id="Path-11"></path>
                    </g>
                </g>
                <g id="Y" transform="translate(78.000000, 23.000000)">
                    <path d="M0.221557617,1.24165483 C11.6534717,11.2710967 8.5034999,4.8277113 8.80371094,20.9869496" id="Path-12"></path>
                    <path d="M9.03625488,7.89550781 C10.9204102,5.53338068 12.8045654,3.17125355 14.6887207,0.80912642" id="Path-13"></path>
                </g>
            </g>
            <g id="layer5" transform="translate(196.000000, 143.000000)">
                <g id="F">
                    <path d="M1.149375,0.415288881 C2.2018809,27.8141663 12.0997388,54.4250337 6.72375,81.709484" id="Path"></path>
                    <path d="M0.519375,0.672283794 C8.18125,0.730014535 15.843125,0.787745276 23.505,0.845476017" id="Path-2"></path>
                    <polyline id="Path-3" points="5.8275 36.8564226 9.25875 36.8564226 10.584375 36.8564226 11.469375 36.8564226 12.804375 36.8564226 13.696875 36.8564226 14.218125 36.8564226 14.46375 36.8564226 14.58 36.8564226 14.70375 36.8564226 14.82 36.8564226 14.941875 36.8564226 15.065625 36.8564226 15.189375 36.8564226 15.313125 36.8564226"></polyline>
                </g>
                <g id="R" transform="translate(25.000000, 26.000000)">
                    <path d="M0.5625,1.28401693 C0.891276042,8.3785536 1.22005208,15.4730903 1.54882813,22.567627" id="Path-4"></path>
                    <path d="M0.455078125,1.92041016 C2.34039079,0.52656555 12.2727353,-1.48468967 7.96484375,4.18896484 C6.36151847,6.30060427 0.767533723,6.55402259 1.55664063,9.05362956 C3.14564558,14.087026 9.22721354,16.575548 13.0625,20.3365072" id="Path-5"></path>
                </g>
                <path d="M44.4662316,26.2327567 C45.055876,32.8102036 45.6455204,39.3876505 46.2351647,45.9650974" id="I"></path>
                <g id="Y" transform="translate(49.000000, 23.000000)">
                    <path d="M0.214233398,2.57926432 C3.06945801,5.09239366 5.92468262,7.605523 8.77990723,10.1186523" id="Path-7"></path>
                    <path d="M8.17565918,9.45605469 C8.13476562,13.9432509 8.09387207,18.430447 8.05297852,22.9176432" id="Path-8"></path>
                    <path d="M9.0637207,8.98250326 C10.8666992,6.27471246 12.6696777,3.56692166 14.4726562,0.859130859" id="Path-9"></path>
                </g>
                <g id="A" transform="translate(64.000000, 25.000000)">
                    <path d="M0.925998264,19.5796131 C10.2055211,-5.10224416 5.09525905,-5.07994771 16.2086589,18.3537946" id="Path-10"></path>
                    <g id="Group" transform="translate(2.833333, 10.476190)">
                        <path d="M0.647460938,0.950520833 C3.54658565,0.792410714 6.44571036,0.634300595 9.34483507,0.476190476" id="Path-11"></path>
                    </g>
                </g>
                <g id="Y" transform="translate(78.000000, 23.000000)">
                    <path d="M0.221557617,1.24165483 C11.6534717,11.2710967 8.5034999,4.8277113 8.80371094,20.9869496" id="Path-12"></path>
                    <path d="M9.03625488,7.89550781 C10.9204102,5.53338068 12.8045654,3.17125355 14.6887207,0.80912642" id="Path-13"></path>
                </g>
            </g>
            <g id="layer6" transform="translate(196.000000, 269.000000)">
                <g id="F">
                    <path d="M1.149375,0.415288881 C2.2018809,27.8141663 12.0997388,54.4250337 6.72375,81.709484" id="Path"></path>
                    <path d="M0.519375,0.672283794 C8.18125,0.730014535 15.843125,0.787745276 23.505,0.845476017" id="Path-2"></path>
                    <polyline id="Path-3" points="5.8275 36.8564226 9.25875 36.8564226 10.584375 36.8564226 11.469375 36.8564226 12.804375 36.8564226 13.696875 36.8564226 14.218125 36.8564226 14.46375 36.8564226 14.58 36.8564226 14.70375 36.8564226 14.82 36.8564226 14.941875 36.8564226 15.065625 36.8564226 15.189375 36.8564226 15.313125 36.8564226"></polyline>
                </g>
                <g id="R" transform="translate(25.000000, 26.000000)">
                    <path d="M0.5625,1.28401693 C0.891276042,8.3785536 1.22005208,15.4730903 1.54882813,22.567627" id="Path-4"></path>
                    <path d="M0.455078125,1.92041016 C2.34039079,0.52656555 12.2727353,-1.48468967 7.96484375,4.18896484 C6.36151847,6.30060427 0.767533723,6.55402259 1.55664063,9.05362956 C3.14564558,14.087026 9.22721354,16.575548 13.0625,20.3365072" id="Path-5"></path>
                </g>
                <path d="M44.4662316,26.2327567 C45.055876,32.8102036 45.6455204,39.3876505 46.2351647,45.9650974" id="I"></path>
                <g id="Y" transform="translate(49.000000, 23.000000)">
                    <path d="M0.214233398,2.57926432 C3.06945801,5.09239366 5.92468262,7.605523 8.77990723,10.1186523" id="Path-7"></path>
                    <path d="M8.17565918,9.45605469 C8.13476562,13.9432509 8.09387207,18.430447 8.05297852,22.9176432" id="Path-8"></path>
                    <path d="M9.0637207,8.98250326 C10.8666992,6.27471246 12.6696777,3.56692166 14.4726562,0.859130859" id="Path-9"></path>
                </g>
                <g id="A" transform="translate(64.000000, 25.000000)">
                    <path d="M0.925998264,19.5796131 C10.2055211,-5.10224416 5.09525905,-5.07994771 16.2086589,18.3537946" id="Path-10"></path>
                    <g id="Group" transform="translate(2.833333, 10.476190)">
                        <path d="M0.647460938,0.950520833 C3.54658565,0.792410714 6.44571036,0.634300595 9.34483507,0.476190476" id="Path-11"></path>
                    </g>
                </g>
                <g id="Y" transform="translate(78.000000, 23.000000)">
                    <path d="M0.221557617,1.24165483 C11.6534717,11.2710967 8.5034999,4.8277113 8.80371094,20.9869496" id="Path-12"></path>
                    <path d="M9.03625488,7.89550781 C10.9204102,5.53338068 12.8045654,3.17125355 14.6887207,0.80912642" id="Path-13"></path>
                </g>
            </g>
            <g id="layer7" transform="translate(350.000000, 17.000000)">
                <g id="F">
                    <path d="M1.149375,0.415288881 C2.2018809,27.8141663 12.0997388,54.4250337 6.72375,81.709484" id="Path"></path>
                    <path d="M0.519375,0.672283794 C8.18125,0.730014535 15.843125,0.787745276 23.505,0.845476017" id="Path-2"></path>
                    <polyline id="Path-3" points="5.8275 36.8564226 9.25875 36.8564226 10.584375 36.8564226 11.469375 36.8564226 12.804375 36.8564226 13.696875 36.8564226 14.218125 36.8564226 14.46375 36.8564226 14.58 36.8564226 14.70375 36.8564226 14.82 36.8564226 14.941875 36.8564226 15.065625 36.8564226 15.189375 36.8564226 15.313125 36.8564226"></polyline>
                </g>
                <g id="R" transform="translate(25.000000, 26.000000)">
                    <path d="M0.5625,1.28401693 C0.891276042,8.3785536 1.22005208,15.4730903 1.54882813,22.567627" id="Path-4"></path>
                    <path d="M0.455078125,1.92041016 C2.34039079,0.52656555 12.2727353,-1.48468967 7.96484375,4.18896484 C6.36151847,6.30060427 0.767533723,6.55402259 1.55664063,9.05362956 C3.14564558,14.087026 9.22721354,16.575548 13.0625,20.3365072" id="Path-5"></path>
                </g>
                <path d="M44.4662316,26.2327567 C45.055876,32.8102036 45.6455204,39.3876505 46.2351647,45.9650974" id="I"></path>
                <g id="Y" transform="translate(49.000000, 23.000000)">
                    <path d="M0.214233398,2.57926432 C3.06945801,5.09239366 5.92468262,7.605523 8.77990723,10.1186523" id="Path-7"></path>
                    <path d="M8.17565918,9.45605469 C8.13476562,13.9432509 8.09387207,18.430447 8.05297852,22.9176432" id="Path-8"></path>
                    <path d="M9.0637207,8.98250326 C10.8666992,6.27471246 12.6696777,3.56692166 14.4726562,0.859130859" id="Path-9"></path>
                </g>
                <g id="A" transform="translate(64.000000, 25.000000)">
                    <path d="M0.925998264,19.5796131 C10.2055211,-5.10224416 5.09525905,-5.07994771 16.2086589,18.3537946" id="Path-10"></path>
                    <g id="Group" transform="translate(2.833333, 10.476190)">
                        <path d="M0.647460938,0.950520833 C3.54658565,0.792410714 6.44571036,0.634300595 9.34483507,0.476190476" id="Path-11"></path>
                    </g>
                </g>
                <g id="Y" transform="translate(78.000000, 23.000000)">
                    <path d="M0.221557617,1.24165483 C11.6534717,11.2710967 8.5034999,4.8277113 8.80371094,20.9869496" id="Path-12"></path>
                    <path d="M9.03625488,7.89550781 C10.9204102,5.53338068 12.8045654,3.17125355 14.6887207,0.80912642" id="Path-13"></path>
                </g>
            </g>
            <g id="layer8" transform="translate(350.000000, 143.000000)">
                <g id="F">
                    <path d="M1.149375,0.415288881 C2.2018809,27.8141663 12.0997388,54.4250337 6.72375,81.709484" id="Path"></path>
                    <path d="M0.519375,0.672283794 C8.18125,0.730014535 15.843125,0.787745276 23.505,0.845476017" id="Path-2"></path>
                    <polyline id="Path-3" points="5.8275 36.8564226 9.25875 36.8564226 10.584375 36.8564226 11.469375 36.8564226 12.804375 36.8564226 13.696875 36.8564226 14.218125 36.8564226 14.46375 36.8564226 14.58 36.8564226 14.70375 36.8564226 14.82 36.8564226 14.941875 36.8564226 15.065625 36.8564226 15.189375 36.8564226 15.313125 36.8564226"></polyline>
                </g>
                <g id="R" transform="translate(25.000000, 26.000000)">
                    <path d="M0.5625,1.28401693 C0.891276042,8.3785536 1.22005208,15.4730903 1.54882813,22.567627" id="Path-4"></path>
                    <path d="M0.455078125,1.92041016 C2.34039079,0.52656555 12.2727353,-1.48468967 7.96484375,4.18896484 C6.36151847,6.30060427 0.767533723,6.55402259 1.55664063,9.05362956 C3.14564558,14.087026 9.22721354,16.575548 13.0625,20.3365072" id="Path-5"></path>
                </g>
                <path d="M44.4662316,26.2327567 C45.055876,32.8102036 45.6455204,39.3876505 46.2351647,45.9650974" id="I"></path>
                <g id="Y" transform="translate(49.000000, 23.000000)">
                    <path d="M0.214233398,2.57926432 C3.06945801,5.09239366 5.92468262,7.605523 8.77990723,10.1186523" id="Path-7"></path>
                    <path d="M8.17565918,9.45605469 C8.13476562,13.9432509 8.09387207,18.430447 8.05297852,22.9176432" id="Path-8"></path>
                    <path d="M9.0637207,8.98250326 C10.8666992,6.27471246 12.6696777,3.56692166 14.4726562,0.859130859" id="Path-9"></path>
                </g>
                <g id="A" transform="translate(64.000000, 25.000000)">
                    <path d="M0.925998264,19.5796131 C10.2055211,-5.10224416 5.09525905,-5.07994771 16.2086589,18.3537946" id="Path-10"></path>
                    <g id="Group" transform="translate(2.833333, 10.476190)">
                        <path d="M0.647460938,0.950520833 C3.54658565,0.792410714 6.44571036,0.634300595 9.34483507,0.476190476" id="Path-11"></path>
                    </g>
                </g>
                <g id="Y" transform="translate(78.000000, 23.000000)">
                    <path d="M0.221557617,1.24165483 C11.6534717,11.2710967 8.5034999,4.8277113 8.80371094,20.9869496" id="Path-12"></path>
                    <path d="M9.03625488,7.89550781 C10.9204102,5.53338068 12.8045654,3.17125355 14.6887207,0.80912642" id="Path-13"></path>
                </g>
            </g>
            <g id="layer9" transform="translate(350.000000, 269.000000)">
                <g id="F">
                    <path d="M1.149375,0.415288881 C2.2018809,27.8141663 12.0997388,54.4250337 6.72375,81.709484" id="Path"></path>
                    <path d="M0.519375,0.672283794 C8.18125,0.730014535 15.843125,0.787745276 23.505,0.845476017" id="Path-2"></path>
                    <polyline id="Path-3" points="5.8275 36.8564226 9.25875 36.8564226 10.584375 36.8564226 11.469375 36.8564226 12.804375 36.8564226 13.696875 36.8564226 14.218125 36.8564226 14.46375 36.8564226 14.58 36.8564226 14.70375 36.8564226 14.82 36.8564226 14.941875 36.8564226 15.065625 36.8564226 15.189375 36.8564226 15.313125 36.8564226"></polyline>
                </g>
                <g id="R" transform="translate(25.000000, 26.000000)">
                    <path d="M0.5625,1.28401693 C0.891276042,8.3785536 1.22005208,15.4730903 1.54882813,22.567627" id="Path-4"></path>
                    <path d="M0.455078125,1.92041016 C2.34039079,0.52656555 12.2727353,-1.48468967 7.96484375,4.18896484 C6.36151847,6.30060427 0.767533723,6.55402259 1.55664063,9.05362956 C3.14564558,14.087026 9.22721354,16.575548 13.0625,20.3365072" id="Path-5"></path>
                </g>
                <path d="M44.4662316,26.2327567 C45.055876,32.8102036 45.6455204,39.3876505 46.2351647,45.9650974" id="I"></path>
                <g id="Y" transform="translate(49.000000, 23.000000)">
                    <path d="M0.214233398,2.57926432 C3.06945801,5.09239366 5.92468262,7.605523 8.77990723,10.1186523" id="Path-7"></path>
                    <path d="M8.17565918,9.45605469 C8.13476562,13.9432509 8.09387207,18.430447 8.05297852,22.9176432" id="Path-8"></path>
                    <path d="M9.0637207,8.98250326 C10.8666992,6.27471246 12.6696777,3.56692166 14.4726562,0.859130859" id="Path-9"></path>
                </g>
                <g id="A" transform="translate(64.000000, 25.000000)">
                    <path d="M0.925998264,19.5796131 C10.2055211,-5.10224416 5.09525905,-5.07994771 16.2086589,18.3537946" id="Path-10"></path>
                    <g id="Group" transform="translate(2.833333, 10.476190)">
                        <path d="M0.647460938,0.950520833 C3.54658565,0.792410714 6.44571036,0.634300595 9.34483507,0.476190476" id="Path-11"></path>
                    </g>
                </g>
                <g id="Y" transform="translate(78.000000, 23.000000)">
                    <path d="M0.221557617,1.24165483 C11.6534717,11.2710967 8.5034999,4.8277113 8.80371094,20.9869496" id="Path-12"></path>
                    <path d="M9.03625488,7.89550781 C10.9204102,5.53338068 12.8045654,3.17125355 14.6887207,0.80912642" id="Path-13"></path>
                </g>
            </g>
            <g id="layer10" transform="translate(484.000000, 17.000000)">
                <g id="F">
                    <path d="M1.149375,0.415288881 C2.2018809,27.8141663 12.0997388,54.4250337 6.72375,81.709484" id="Path"></path>
                    <path d="M0.519375,0.672283794 C8.18125,0.730014535 15.843125,0.787745276 23.505,0.845476017" id="Path-2"></path>
                    <polyline id="Path-3" points="5.8275 36.8564226 9.25875 36.8564226 10.584375 36.8564226 11.469375 36.8564226 12.804375 36.8564226 13.696875 36.8564226 14.218125 36.8564226 14.46375 36.8564226 14.58 36.8564226 14.70375 36.8564226 14.82 36.8564226 14.941875 36.8564226 15.065625 36.8564226 15.189375 36.8564226 15.313125 36.8564226"></polyline>
                </g>
                <g id="R" transform="translate(25.000000, 26.000000)">
                    <path d="M0.5625,1.28401693 C0.891276042,8.3785536 1.22005208,15.4730903 1.54882813,22.567627" id="Path-4"></path>
                    <path d="M0.455078125,1.92041016 C2.34039079,0.52656555 12.2727353,-1.48468967 7.96484375,4.18896484 C6.36151847,6.30060427 0.767533723,6.55402259 1.55664063,9.05362956 C3.14564558,14.087026 9.22721354,16.575548 13.0625,20.3365072" id="Path-5"></path>
                </g>
                <path d="M44.4662316,26.2327567 C45.055876,32.8102036 45.6455204,39.3876505 46.2351647,45.9650974" id="I"></path>
                <g id="Y" transform="translate(49.000000, 23.000000)">
                    <path d="M0.214233398,2.57926432 C3.06945801,5.09239366 5.92468262,7.605523 8.77990723,10.1186523" id="Path-7"></path>
                    <path d="M8.17565918,9.45605469 C8.13476562,13.9432509 8.09387207,18.430447 8.05297852,22.9176432" id="Path-8"></path>
                    <path d="M9.0637207,8.98250326 C10.8666992,6.27471246 12.6696777,3.56692166 14.4726562,0.859130859" id="Path-9"></path>
                </g>
                <g id="A" transform="translate(64.000000, 25.000000)">
                    <path d="M0.925998264,19.5796131 C10.2055211,-5.10224416 5.09525905,-5.07994771 16.2086589,18.3537946" id="Path-10"></path>
                    <g id="Group" transform="translate(2.833333, 10.476190)">
                        <path d="M0.647460938,0.950520833 C3.54658565,0.792410714 6.44571036,0.634300595 9.34483507,0.476190476" id="Path-11"></path>
                    </g>
                </g>
                <g id="Y" transform="translate(78.000000, 23.000000)">
                    <path d="M0.221557617,1.24165483 C11.6534717,11.2710967 8.5034999,4.8277113 8.80371094,20.9869496" id="Path-12"></path>
                    <path d="M9.03625488,7.89550781 C10.9204102,5.53338068 12.8045654,3.17125355 14.6887207,0.80912642" id="Path-13"></path>
                </g>
            </g>
            <g id="layer11" transform="translate(484.000000, 143.000000)">
                <g id="F">
                    <path d="M1.149375,0.415288881 C2.2018809,27.8141663 12.0997388,54.4250337 6.72375,81.709484" id="Path"></path>
                    <path d="M0.519375,0.672283794 C8.18125,0.730014535 15.843125,0.787745276 23.505,0.845476017" id="Path-2"></path>
                    <polyline id="Path-3" points="5.8275 36.8564226 9.25875 36.8564226 10.584375 36.8564226 11.469375 36.8564226 12.804375 36.8564226 13.696875 36.8564226 14.218125 36.8564226 14.46375 36.8564226 14.58 36.8564226 14.70375 36.8564226 14.82 36.8564226 14.941875 36.8564226 15.065625 36.8564226 15.189375 36.8564226 15.313125 36.8564226"></polyline>
                </g>
                <g id="R" transform="translate(25.000000, 26.000000)">
                    <path d="M0.5625,1.28401693 C0.891276042,8.3785536 1.22005208,15.4730903 1.54882813,22.567627" id="Path-4"></path>
                    <path d="M0.455078125,1.92041016 C2.34039079,0.52656555 12.2727353,-1.48468967 7.96484375,4.18896484 C6.36151847,6.30060427 0.767533723,6.55402259 1.55664063,9.05362956 C3.14564558,14.087026 9.22721354,16.575548 13.0625,20.3365072" id="Path-5"></path>
                </g>
                <path d="M44.4662316,26.2327567 C45.055876,32.8102036 45.6455204,39.3876505 46.2351647,45.9650974" id="I"></path>
                <g id="Y" transform="translate(49.000000, 23.000000)">
                    <path d="M0.214233398,2.57926432 C3.06945801,5.09239366 5.92468262,7.605523 8.77990723,10.1186523" id="Path-7"></path>
                    <path d="M8.17565918,9.45605469 C8.13476562,13.9432509 8.09387207,18.430447 8.05297852,22.9176432" id="Path-8"></path>
                    <path d="M9.0637207,8.98250326 C10.8666992,6.27471246 12.6696777,3.56692166 14.4726562,0.859130859" id="Path-9"></path>
                </g>
                <g id="A" transform="translate(64.000000, 25.000000)">
                    <path d="M0.925998264,19.5796131 C10.2055211,-5.10224416 5.09525905,-5.07994771 16.2086589,18.3537946" id="Path-10"></path>
                    <g id="Group" transform="translate(2.833333, 10.476190)">
                        <path d="M0.647460938,0.950520833 C3.54658565,0.792410714 6.44571036,0.634300595 9.34483507,0.476190476" id="Path-11"></path>
                    </g>
                </g>
                <g id="Y" transform="translate(78.000000, 23.000000)">
                    <path d="M0.221557617,1.24165483 C11.6534717,11.2710967 8.5034999,4.8277113 8.80371094,20.9869496" id="Path-12"></path>
                    <path d="M9.03625488,7.89550781 C10.9204102,5.53338068 12.8045654,3.17125355 14.6887207,0.80912642" id="Path-13"></path>
                </g>
            </g>
            <g id="layer12" transform="translate(484.000000, 269.000000)">
                <g id="F">
                    <path d="M1.149375,0.415288881 C2.2018809,27.8141663 12.0997388,54.4250337 6.72375,81.709484" id="Path"></path>
                    <path d="M0.519375,0.672283794 C8.18125,0.730014535 15.843125,0.787745276 23.505,0.845476017" id="Path-2"></path>
                    <polyline id="Path-3" points="5.8275 36.8564226 9.25875 36.8564226 10.584375 36.8564226 11.469375 36.8564226 12.804375 36.8564226 13.696875 36.8564226 14.218125 36.8564226 14.46375 36.8564226 14.58 36.8564226 14.70375 36.8564226 14.82 36.8564226 14.941875 36.8564226 15.065625 36.8564226 15.189375 36.8564226 15.313125 36.8564226"></polyline>
                </g>
                <g id="R" transform="translate(25.000000, 26.000000)">
                    <path d="M0.5625,1.28401693 C0.891276042,8.3785536 1.22005208,15.4730903 1.54882813,22.567627" id="Path-4"></path>
                    <path d="M0.455078125,1.92041016 C2.34039079,0.52656555 12.2727353,-1.48468967 7.96484375,4.18896484 C6.36151847,6.30060427 0.767533723,6.55402259 1.55664063,9.05362956 C3.14564558,14.087026 9.22721354,16.575548 13.0625,20.3365072" id="Path-5"></path>
                </g>
                <path d="M44.4662316,26.2327567 C45.055876,32.8102036 45.6455204,39.3876505 46.2351647,45.9650974" id="I"></path>
                <g id="Y" transform="translate(49.000000, 23.000000)">
                    <path d="M0.214233398,2.57926432 C3.06945801,5.09239366 5.92468262,7.605523 8.77990723,10.1186523" id="Path-7"></path>
                    <path d="M8.17565918,9.45605469 C8.13476562,13.9432509 8.09387207,18.430447 8.05297852,22.9176432" id="Path-8"></path>
                    <path d="M9.0637207,8.98250326 C10.8666992,6.27471246 12.6696777,3.56692166 14.4726562,0.859130859" id="Path-9"></path>
                </g>
                <g id="A" transform="translate(64.000000, 25.000000)">
                    <path d="M0.925998264,19.5796131 C10.2055211,-5.10224416 5.09525905,-5.07994771 16.2086589,18.3537946" id="Path-10"></path>
                    <g id="Group" transform="translate(2.833333, 10.476190)">
                        <path d="M0.647460938,0.950520833 C3.54658565,0.792410714 6.44571036,0.634300595 9.34483507,0.476190476" id="Path-11"></path>
                    </g>
                </g>
                <g id="Y" transform="translate(78.000000, 23.000000)">
                    <path d="M0.221557617,1.24165483 C11.6534717,11.2710967 8.5034999,4.8277113 8.80371094,20.9869496" id="Path-12"></path>
                    <path d="M9.03625488,7.89550781 C10.9204102,5.53338068 12.8045654,3.17125355 14.6887207,0.80912642" id="Path-13"></path>
                </g>
            </g>
        </g>
    </g>
</svg>