<?xml version="1.0" encoding="utf-8"?>
<!-- Generator: Adobe Illustrator 21.1.0, SVG Export Plug-In . SVG Version: 6.00 Build 0)  -->
<svg  x="0px" y="0px"
	 >
	 <defs>
		<style type="text/css">
			.st0{
				fill:#0B877D;
				animation-name:change6;
				transform: translate(260px,200px);
				animation-duration: 3s;
				animation-iteration-count: infinite;
				animation-timing-function: ease-in-out;
				animation-direction: alternate;
			}
			.st1{
				fill:#DA727E;
				animation-name:change5;
				animation-duration: 6s;
				animation-iteration-count: infinite;
				animation-timing-function: ease-in-out;
				animation-direction: alternate;
			}
			.st2{
				fill:#685C79;
				animation-name:change4;
				animation-duration: 3s;
				animation-iteration-count: infinite;
				animation-timing-function: ease-in-out;
				animation-direction: alternate;
				}
			.st3{
				fill:#FFBC67;
				animation-name:change3;
				animation-duration: 6s;
				animation-iteration-count: infinite;
				animation-timing-function: ease-in-out;
				animation-direction: alternate;
				}
			.st4{
				fill:#455C7B;
				animation-name:change2;
				animation-duration: 3s;
				animation-iteration-count: infinite;
				animation-timing-function: ease-in-out;
				animation-direction: alternate;
				}
			.st5{
				fill:#AC6C82;
				animation-name:change1;
				animation-duration: 6s;
				animation-iteration-count: infinite;
				animation-timing-function: ease-in-out;
				animation-direction: alternate;
				}

		

			@-webkit-keyframes change6 {
				from{
					fill:#0B877D;
				}  
				to {
					fill: #DA727E;
				}
			}

			@-webkit-keyframes change5 {
				from{
					fill:#DA727E;
				}  
				to {
					fill: #685C79;
				}
			}
			@-webkit-keyframes change4 {
				from{
					fill:#685C79;
				}  
				to {
					fill: #FFBC67;
				}
			}

			@-webkit-keyframes change3 {
				from{
					fill:#FFBC67;
				}  
				to {
					fill: #455C7B;
				}
			}
			@-webkit-keyframes change2 {
				from{
					fill:#455C7B;
				}  
				to {
					fill: #DA727E;
				}
			}

			@-webkit-keyframes change1 {
				from{
					fill:#AC6C82;
				}  
				to {
					fill: #0B877D;
				}
			}
		</style>
	</defs>
<g id="Layer_6">
	<path class="st0" d="M212.442,179.505c0,17.396-14.102,31.498-31.498,31.498s-31.498-14.102-31.498-31.498"/>
	<path class="st0" d="M212.139,253.508c0,17.396-14.102,31.498-31.498,31.498s-31.498-14.102-31.498-31.498"/>
	<path class="st0" d="M439.944,179.505c0,17.396-14.102,31.498-31.498,31.498s-31.498-14.102-31.498-31.498"/>
	<path class="st0" d="M439.641,253.508c0,17.396-14.102,31.498-31.498,31.498s-31.498-14.102-31.498-31.498"/>
	<path class="st0" d="M213.697,324.505c0,17.396-14.102,31.498-31.498,31.498S150.7,341.901,150.7,324.505"/>
	<path class="st0" d="M213.395,398.508c0,17.396-14.102,31.498-31.498,31.498s-31.498-14.102-31.498-31.498"/>
	<path class="st0" d="M441.199,324.505c0,17.396-14.102,31.498-31.498,31.498s-31.498-14.102-31.498-31.498"/>
	<path class="st0" d="M440.896,398.508c0,17.396-14.102,31.498-31.498,31.498c-17.396,0-31.498-14.102-31.498-31.498"/>
	<path class="st0" d="M212.395,31.498c0,17.396-14.102,31.498-31.498,31.498s-31.498-14.102-31.498-31.498"/>
	<path class="st0" d="M439.395,31.498c0,17.396-14.102,31.498-31.498,31.498s-31.498-14.102-31.498-31.498"/>
	<path class="st0" d="M439.593,105.502c0,17.396-14.102,31.498-31.498,31.498c-17.396,0-31.498-14.102-31.498-31.498"/>
	<path class="st0" d="M212.092,105.502c0,17.396-14.102,31.498-31.498,31.498s-31.498-14.102-31.498-31.498"/>
</g>
<g id="Layer_5">
	<path class="st1" d="M149.398,31.498C149.398,14.102,163.5,0,180.896,0s31.498,14.102,31.498,31.498"/>
	<path class="st1" d="M149.095,105.502c0-17.396,14.102-31.498,31.498-31.498s31.498,14.102,31.498,31.498"/>
	<path class="st1" d="M150.398,398.508c0-17.396,14.102-31.498,31.498-31.498s31.498,14.102,31.498,31.498"/>
	<path class="st1" d="M377.899,398.508c0-17.396,14.102-31.498,31.498-31.498c17.396,0,31.498,14.102,31.498,31.498"/>
	<path class="st1" d="M376.398,31.498C376.398,14.102,390.5,0,407.896,0c17.396,0,31.498,14.102,31.498,31.498"/>
	<path class="st1" d="M376.596,105.502c0-17.396,14.102-31.498,31.498-31.498c17.396,0,31.498,14.102,31.498,31.498"/>
	<path class="st1" d="M376.644,253.508c0-17.396,14.102-31.498,31.498-31.498c17.396,0,31.498,14.102,31.498,31.498"/>
	<path class="st1" d="M149.445,179.505c0-17.396,14.102-31.498,31.498-31.498s31.498,14.102,31.498,31.498"/>
	<path class="st1" d="M149.142,253.508c0-17.396,14.102-31.498,31.498-31.498s31.498,14.102,31.498,31.498"/>
	<path class="st1" d="M376.947,179.505c0-17.396,14.102-31.498,31.498-31.498c17.396,0,31.498,14.102,31.498,31.498"/>
	<path class="st1" d="M150.7,324.505c0-17.396,14.102-31.498,31.498-31.498s31.498,14.102,31.498,31.498"/>
	<path class="st1" d="M378.202,324.505c0-17.396,14.102-31.498,31.498-31.498c17.396,0,31.498,14.102,31.498,31.498"/>
</g>
<g id="Layer_4">
	<path class="st2" d="M138.395,31.498c0,17.396-14.102,31.498-31.498,31.498S75.398,48.895,75.398,31.498"/>
	<path class="st2" d="M138.139,253.508c0,17.396-14.102,31.498-31.498,31.498s-31.498-14.102-31.498-31.498"/>
	<path class="st2" d="M365.641,253.508c0,17.396-14.102,31.498-31.498,31.498s-31.498-14.102-31.498-31.498"/>
	<path class="st2" d="M139.395,398.508c0,17.396-14.102,31.498-31.498,31.498s-31.498-14.102-31.498-31.498"/>
	<path class="st2" d="M365.395,31.498c0,17.396-14.102,31.498-31.498,31.498s-31.498-14.102-31.498-31.498"/>
	<path class="st2" d="M365.593,105.502c0,17.396-14.102,31.498-31.498,31.498c-17.396,0-31.498-14.102-31.498-31.498"/>
	<path class="st2" d="M366.896,398.508c0,17.396-14.102,31.498-31.498,31.498c-17.396,0-31.498-14.102-31.498-31.498"/>
	<path class="st2" d="M138.092,105.502c0,17.396-14.102,31.498-31.498,31.498s-31.498-14.102-31.498-31.498"/>
	<path class="st2" d="M138.442,179.505c0,17.396-14.102,31.498-31.498,31.498s-31.498-14.102-31.498-31.498"/>
	<path class="st2" d="M365.944,179.505c0,17.396-14.102,31.498-31.498,31.498s-31.498-14.102-31.498-31.498"/>
	<path class="st2" d="M139.697,324.505c0,17.396-14.102,31.498-31.498,31.498S76.7,341.901,76.7,324.505"/>
	<path class="st2" d="M367.199,324.505c0,17.396-14.102,31.498-31.498,31.498s-31.498-14.102-31.498-31.498"/>
</g>
<g id="Layer_3_1_">
	<path class="st3" d="M75.398,31.498C75.398,14.102,89.5,0,106.896,0s31.498,14.102,31.498,31.498"/>
	<path class="st3" d="M76.398,398.508c0-17.396,14.102-31.498,31.498-31.498s31.498,14.102,31.498,31.498"/>
	<path class="st3" d="M302.398,31.498C302.398,14.102,316.5,0,333.896,0c17.396,0,31.498,14.102,31.498,31.498"/>
	<path class="st3" d="M302.644,253.508c0-17.396,14.102-31.498,31.498-31.498c17.396,0,31.498,14.102,31.498,31.498"/>
	<path class="st3" d="M303.899,398.508c0-17.396,14.102-31.498,31.498-31.498c17.396,0,31.498,14.102,31.498,31.498"/>
	<path class="st3" d="M302.596,105.502c0-17.396,14.102-31.498,31.498-31.498c17.396,0,31.498,14.102,31.498,31.498"/>
	<path class="st3" d="M75.142,253.508c0-17.396,14.102-31.498,31.498-31.498s31.498,14.102,31.498,31.498"/>
	<path class="st3" d="M75.095,105.502c0-17.396,14.102-31.498,31.498-31.498s31.498,14.102,31.498,31.498"/>
	<path class="st3" d="M75.445,179.505c0-17.396,14.102-31.498,31.498-31.498s31.498,14.102,31.498,31.498"/>
	<path class="st3" d="M302.947,179.505c0-17.396,14.102-31.498,31.498-31.498c17.396,0,31.498,14.102,31.498,31.498"/>
	<path class="st3" d="M76.7,324.505c0-17.396,14.102-31.498,31.498-31.498s31.498,14.102,31.498,31.498"/>
	<path class="st3" d="M304.202,324.505c0-17.396,14.102-31.498,31.498-31.498c17.396,0,31.498,14.102,31.498,31.498"/>
</g>
<g id="Layer_2_1_">
	<path class="st4" d="M63.997,31.498c0,17.396-14.102,31.498-31.498,31.498S1,48.895,1,31.498"/>
	<path class="st4" d="M290.997,31.498c0,17.396-14.102,31.498-31.498,31.498S228,48.895,228,31.498"/>
	<path class="st4" d="M291.196,105.502c0,17.396-14.102,31.498-31.498,31.498s-31.498-14.102-31.498-31.498"/>
	<path class="st4" d="M64.044,179.505c0,17.396-14.102,31.498-31.498,31.498S1.047,196.901,1.047,179.505"/>
	<path class="st4" d="M64.997,398.508c0,17.396-14.102,31.498-31.498,31.498S2,415.904,2,398.508"/>
	<path class="st4" d="M63.742,253.508c0,17.396-14.102,31.498-31.498,31.498S0.745,270.904,0.745,253.508"/>
	<path class="st4" d="M291.243,253.508c0,17.396-14.102,31.498-31.498,31.498s-31.498-14.102-31.498-31.498"/>
	<path class="st4" d="M292.498,398.508c0,17.396-14.102,31.498-31.498,31.498s-31.498-14.102-31.498-31.498"/>
	<path class="st4" d="M63.694,105.502c0,17.396-14.102,31.498-31.498,31.498S0.697,122.898,0.697,105.502"/>
	<path class="st4" d="M291.546,179.505c0,17.396-14.102,31.498-31.498,31.498s-31.498-14.102-31.498-31.498"/>
	<path class="st4" d="M65.3,324.505c0,17.396-14.102,31.498-31.498,31.498S2.303,341.901,2.303,324.505"/>
	<path class="st4" d="M292.801,324.505c0,17.396-14.102,31.498-31.498,31.498s-31.498-14.102-31.498-31.498"/>
</g>
<g id="Layer_1">
	<path class="st5" d="M1,31.498C1,14.102,15.102,0,32.498,0s31.498,14.102,31.498,31.498"/>
	<path class="st5" d="M0.697,105.502c0-17.396,14.102-31.498,31.498-31.498s31.498,14.102,31.498,31.498"/>
	<path class="st5" d="M228,31.498C228,14.102,242.102,0,259.498,0c17.396,0,31.498,14.102,31.498,31.498"/>
	<path class="st5" d="M228.199,105.502c0-17.396,14.102-31.498,31.498-31.498s31.498,14.102,31.498,31.498"/>
	<path class="st5" d="M0.745,253.508c0-17.396,14.102-31.498,31.498-31.498s31.498,14.102,31.498,31.498"/>
	<path class="st5" d="M228.246,253.508c0-17.396,14.102-31.498,31.498-31.498c17.396,0,31.498,14.102,31.498,31.498"/>
	<path class="st5" d="M2,398.508c0-17.396,14.102-31.498,31.498-31.498s31.498,14.102,31.498,31.498"/>
	<path class="st5" d="M1.047,179.505c0-17.396,14.102-31.498,31.498-31.498s31.498,14.102,31.498,31.498"/>
	<path class="st5" d="M229.502,398.508c0-17.396,14.102-31.498,31.498-31.498s31.498,14.102,31.498,31.498"/>
	<path class="st5" d="M228.549,179.505c0-17.396,14.102-31.498,31.498-31.498c17.396,0,31.498,14.102,31.498,31.498"/>
	<path class="st5" d="M2.303,324.505c0-17.396,14.102-31.498,31.498-31.498S65.3,307.109,65.3,324.505"/>
	<path class="st5" d="M229.804,324.505c0-17.396,14.102-31.498,31.498-31.498s31.498,14.102,31.498,31.498"/>
</g>
</svg>
